<svg width="27" height="18" viewBox="0 0 27 18" fill="none" xmlns="http://www.w3.org/2000/svg">
<g clip-path="url(#clip0_300_24638)">
<path d="M27.7986 1.82006C27.2414 2.05778 26.7066 2.32522 26.194 2.6298C24.1882 1.43376 21.8036 0.742885 19.2406 0.742885C18.9137 0.742885 18.5943 0.757743 18.2823 0.780029C18.1857 0.780029 18.0891 0.794887 17.9926 0.802315C17.7697 0.824602 17.5468 0.846888 17.324 0.876603C17.22 0.891461 17.116 0.906319 17.0194 0.921176C16.7817 0.95832 16.544 1.00289 16.3062 1.05489C16.2394 1.06975 16.1651 1.08461 16.0982 1.09947C15.8011 1.16633 15.5039 1.24804 15.2142 1.33719C15.1399 1.35948 15.0656 1.38919 14.9913 1.41148C14.7759 1.48577 14.5605 1.56005 14.345 1.63434C14.2485 1.67149 14.1519 1.70863 14.0627 1.74577C13.8622 1.82749 13.669 1.90921 13.4833 1.99835C13.4016 2.0355 13.3124 2.07264 13.2307 2.11721C12.9633 2.25093 12.7033 2.38465 12.4507 2.53323C12.421 2.54809 12.3987 2.57037 12.369 2.58523C12.3467 2.60009 12.3318 2.61494 12.3095 2.62237C10.3038 1.42634 7.91911 0.728027 5.35617 0.728027C3.4544 0.728027 1.6492 1.11433 0.0148621 1.8052V16.1651C0.572023 15.9274 1.1069 15.6599 1.61948 15.3553C3.62526 16.5514 6.00991 17.2497 8.57285 17.2497C8.89972 17.2497 9.21915 17.2348 9.53116 17.2126C9.62774 17.2126 9.72431 17.1977 9.82089 17.1903C10.0438 17.168 10.2666 17.1457 10.4895 17.116C10.5935 17.1011 10.6975 17.0863 10.7941 17.0714C11.0318 17.0343 11.2695 16.9897 11.5072 16.9377C11.5741 16.9228 11.6484 16.908 11.7152 16.8931C12.0124 16.8263 12.3095 16.7445 12.5993 16.6554C12.6735 16.6331 12.7478 16.6034 12.8221 16.5811C13.0376 16.5142 13.253 16.4325 13.4684 16.3582C13.565 16.3211 13.6616 16.284 13.7507 16.2468C13.9513 16.1651 14.1445 16.0834 14.3376 15.9942C14.4193 15.9571 14.5085 15.9199 14.5902 15.8754C14.8576 15.7416 15.1176 15.6079 15.3702 15.4594C15.3999 15.4445 15.4222 15.4222 15.4519 15.4074H15.5856C17.5766 16.5811 19.9389 17.2571 22.4647 17.2571C24.3665 17.2571 26.1717 16.8708 27.806 16.1799V1.82006H27.7986Z" fill="#4C585E"/>
<path d="M27.7986 15.3628C26.1568 16.1057 24.3368 16.5142 22.4573 16.5142C20.5778 16.5142 18.6612 16.0908 16.96 15.2959C17.012 15.2588 17.0565 15.2216 17.1011 15.1845C17.2571 15.0731 17.4057 14.9542 17.5543 14.8279C17.6286 14.7685 17.7028 14.7016 17.7771 14.6348C18.2749 14.2113 18.7355 13.7507 19.1663 13.2604C19.2406 13.1787 19.3149 13.097 19.3818 13.0078C19.5006 12.8667 19.6046 12.7255 19.7161 12.5844C19.7532 12.5398 19.7903 12.4953 19.8201 12.4507C20.5332 11.4775 21.1201 10.4078 21.5361 9.25629C22.6059 6.28477 24.9014 3.9447 27.7837 2.63723V1.01775C27.2266 1.24061 26.6843 1.49319 26.1643 1.78291C24.0619 0.62402 21.6773 0 19.2183 0C18.8915 0 18.5646 0.0148576 18.2377 0.037144C18.1263 0.037144 18.0223 0.0520017 17.9109 0.0668593C17.6954 0.0891457 17.48 0.111432 17.2645 0.141147C17.1383 0.156005 17.012 0.178291 16.8857 0.193149C16.6777 0.222864 16.4771 0.267437 16.2765 0.304581C16.1577 0.326868 16.0388 0.349154 15.9274 0.378869C15.6451 0.445728 15.3702 0.520017 15.0879 0.601733C14.9319 0.646306 14.7833 0.698308 14.6348 0.75031C14.4936 0.794882 14.3525 0.846884 14.2187 0.898886C14.0553 0.958316 13.8993 1.01775 13.7359 1.08461C13.617 1.13661 13.4981 1.18861 13.3793 1.24061C13.2158 1.3149 13.045 1.38919 12.889 1.46348C12.8073 1.50062 12.7255 1.54519 12.6438 1.58976C12.5175 1.65662 12.3913 1.71605 12.2724 1.78291C10.1849 0.616591 7.79282 0 5.34131 0C3.47668 0 1.66405 0.356583 0 1.02518V2.63723C1.64177 1.89435 3.46182 1.48576 5.34131 1.48576C7.2208 1.48576 9.13743 1.9092 10.8386 2.70409C10.7866 2.74123 10.7421 2.77837 10.6901 2.81552C10.534 2.92695 10.3855 3.04581 10.2369 3.16467C10.1552 3.23153 10.0809 3.29839 10.0066 3.36525C9.5163 3.78869 9.05572 4.24185 8.63227 4.72472C8.55799 4.81387 8.47627 4.90301 8.40198 4.99216C8.29055 5.12588 8.17912 5.26702 8.07511 5.40817C8.03797 5.45274 8.00083 5.49732 7.96368 5.54932C7.25052 6.52249 6.66364 7.59224 6.24763 8.75113C5.17788 11.7227 2.88238 14.0627 0 15.3702V16.9823C0.557161 16.7594 1.09946 16.5068 1.61948 16.2171C3.72183 17.376 6.10648 18 8.56542 18C8.89228 18 9.21915 17.9851 9.54602 17.9629C9.65745 17.9629 9.76145 17.948 9.87289 17.9331C10.0883 17.9109 10.3038 17.8886 10.5192 17.8589C10.6455 17.844 10.7718 17.8217 10.8981 17.8069C11.1061 17.7771 11.3066 17.7326 11.5072 17.6954C11.6261 17.6731 11.7449 17.6508 11.8564 17.6211C12.1387 17.5543 12.4135 17.48 12.6958 17.3983C12.8518 17.3537 13.0004 17.3017 13.149 17.2497C13.2901 17.2051 13.4313 17.1531 13.565 17.1011C13.7284 17.0417 13.8919 16.9748 14.0479 16.9154C14.1667 16.8634 14.2856 16.8114 14.4045 16.7594C14.5679 16.6851 14.7388 16.6108 14.9022 16.5365C14.9839 16.4994 15.0582 16.4548 15.1399 16.4102C15.2662 16.3434 15.3925 16.2839 15.5188 16.2097C17.6211 17.3686 20.0058 17.9926 22.4647 17.9926C24.3219 17.9926 26.1345 17.636 27.806 16.9674V15.3553L27.7986 15.3628ZM16.6257 13.6764C16.4845 13.7953 16.3359 13.9067 16.1874 14.0182C16.1205 14.0627 16.0611 14.1147 15.9942 14.1593C15.8456 14.2633 15.6896 14.3747 15.5336 14.4713C15.4816 14.501 15.4296 14.5307 15.3776 14.5679C15.0582 14.7685 14.7239 14.9542 14.3822 15.1251C14.3302 15.1473 14.2856 15.1771 14.2336 15.2068C14.085 15.2811 13.929 15.3479 13.773 15.4148C13.6764 15.4593 13.5724 15.5039 13.4759 15.5411C13.3273 15.6005 13.1787 15.6599 13.0301 15.7119C12.9113 15.7565 12.7924 15.7936 12.6735 15.8382C12.5324 15.8828 12.3913 15.9348 12.2501 15.9719C12.005 16.0462 11.7598 16.1131 11.5072 16.1651C11.4032 16.1874 11.2918 16.2097 11.1878 16.2319C11.0095 16.2691 10.8312 16.3062 10.6455 16.3359C10.534 16.3508 10.4226 16.3657 10.3112 16.3879C10.118 16.4102 9.92489 16.4325 9.73174 16.4548C9.63516 16.4622 9.53859 16.4697 9.44201 16.4771C9.15229 16.4994 8.85514 16.5068 8.56542 16.5068C6.64135 16.5068 4.76187 16.0834 3.0681 15.2811C5.14816 13.7656 6.76764 11.7004 7.65167 9.24144C8.03797 8.17169 8.5877 7.19109 9.25629 6.29963C9.3603 6.16591 9.45687 6.03219 9.5683 5.9059C9.62031 5.83904 9.67974 5.77961 9.73174 5.72018C10.1329 5.2596 10.5638 4.83615 11.0244 4.44243C11.0764 4.39785 11.1284 4.35328 11.1804 4.30871C11.3215 4.18985 11.4701 4.07842 11.6187 3.96698C11.6855 3.91498 11.7524 3.87041 11.8192 3.82584C11.9678 3.72183 12.1164 3.6104 12.2724 3.51383C12.3244 3.47668 12.3764 3.44697 12.4358 3.41725C12.7553 3.21667 13.0821 3.03095 13.4164 2.86009C13.4684 2.83038 13.5204 2.80066 13.5724 2.77837C13.721 2.70409 13.877 2.63723 14.033 2.57037C14.1296 2.52579 14.2336 2.48122 14.3302 2.44408C14.4787 2.38465 14.6273 2.32522 14.7759 2.27322C14.8948 2.22864 15.0136 2.1915 15.1325 2.14693C15.2736 2.10235 15.4073 2.05035 15.5559 2.01321C15.8011 1.93892 16.0462 1.87206 16.2988 1.82006C16.4028 1.79777 16.5142 1.77548 16.6182 1.7532C16.7965 1.71605 16.9748 1.67891 17.1605 1.6492C17.272 1.63434 17.3834 1.61948 17.4948 1.60462C17.688 1.58234 17.8811 1.56005 18.0743 1.53776C18.1709 1.53033 18.2674 1.52291 18.364 1.51548C18.6537 1.49319 18.9509 1.48576 19.2406 1.48576C21.1647 1.48576 23.0442 1.9092 24.7379 2.71151C22.6579 4.22699 21.0384 6.2922 20.1544 8.75113C19.7681 9.81345 19.2258 10.7941 18.5572 11.6855C18.4532 11.8267 18.3492 11.9604 18.2377 12.0941C18.1931 12.1535 18.1411 12.2055 18.0891 12.265C17.688 12.733 17.2497 13.1638 16.7817 13.5576C16.7297 13.6021 16.6851 13.6467 16.6331 13.6839L16.6257 13.6764Z" fill="#222728"/>
<path opacity="0.3" d="M26.1791 13.5427C23.6533 13.5427 21.291 12.8666 19.3 11.6929H19.1663C19.1663 11.6929 19.1143 11.7226 19.0846 11.7449C18.832 11.8935 18.572 12.0272 18.3046 12.1609C18.2229 12.198 18.1411 12.2352 18.052 12.2798C17.8589 12.3689 17.6657 12.4581 17.4651 12.5323C17.3686 12.5695 17.272 12.6066 17.1828 12.6438C16.9748 12.7255 16.7594 12.7998 16.5365 12.8666C16.4622 12.8889 16.3879 12.9186 16.3137 12.9409C16.0239 13.0301 15.7268 13.1118 15.4296 13.1786C15.3628 13.1935 15.2885 13.2084 15.2216 13.2232C14.9839 13.2752 14.7462 13.3198 14.5085 13.3569C14.4045 13.3718 14.3079 13.3867 14.2039 13.4015C13.981 13.4312 13.7582 13.4609 13.5353 13.4758C13.4387 13.4832 13.3421 13.4981 13.2456 13.4981C12.9261 13.5204 12.6067 13.5352 12.2872 13.5352C9.73174 13.5352 7.34709 12.8444 5.33388 11.6483C5.33388 11.6483 5.07388 11.8192 4.56129 12.0718C4.28642 12.2129 4.01156 12.3392 3.72183 12.4581V12.4432C2.82295 12.8072 1.57491 13.2158 0 13.4832V16.1799C0.557161 15.9422 1.09203 15.6747 1.60462 15.3701C3.6104 16.5662 5.99505 17.2645 8.55799 17.2645C8.88485 17.2645 9.20429 17.2496 9.5163 17.2274C9.61288 17.2274 9.70945 17.2125 9.80603 17.2051C10.0289 17.1828 10.2518 17.1605 10.4746 17.1308C10.5786 17.1159 10.6826 17.1011 10.7792 17.0862C11.0169 17.0491 11.2546 17.0045 11.4924 16.9525C11.5592 16.9376 11.6335 16.9228 11.7004 16.9079C11.9975 16.8411 12.2947 16.7593 12.5844 16.6702C12.6587 16.6479 12.733 16.6182 12.8073 16.5959C13.0227 16.529 13.2381 16.4473 13.4536 16.373C13.5501 16.3359 13.6467 16.2987 13.7359 16.2616C13.9364 16.1799 14.1296 16.0982 14.3227 16.009C14.4045 15.9719 14.4936 15.9347 14.5753 15.8902C14.8428 15.7564 15.1028 15.6227 15.3553 15.4742C15.3851 15.4593 15.4073 15.437 15.4371 15.4221H15.5708C17.5617 16.5959 19.9241 17.2719 22.4499 17.2719C24.3516 17.2719 26.1568 16.8856 27.7912 16.1947V13.4535C27.2563 13.5129 26.7214 13.5575 26.1643 13.5575L26.1791 13.5427Z" fill="#222728"/>
<path d="M6.90137 10.9278C6.90137 10.9278 10.1255 5.89846 14.9765 3.41724C14.9765 3.41724 10.6826 4.96243 7.04251 9.73915L6.90137 10.9278Z" fill="#222728"/>
<path d="M19.8126 3.09779C19.8126 3.09779 21.8407 2.99378 23.6162 3.81095L23.3636 4.24925C23.3636 4.24925 21.5361 3.23893 19.8126 3.09779Z" fill="#222728"/>
<path d="M17.7623 14.4491C17.7623 14.4491 19.7458 15.4817 22.0041 15.2737C22.0041 15.2737 18.7726 14.6274 17.9926 14.0776L17.7623 14.4565V14.4491Z" fill="#222728"/>
</g>
<defs>
<clipPath id="clip0_300_24638">
<rect width="27.7986" height="18" fill="white"/>
</clipPath>
</defs>
</svg>
