<svg width="34" height="34" viewBox="0 0 34 34" fill="none" xmlns="http://www.w3.org/2000/svg">
<g clip-path="url(#clip0_300_24674)">
<path d="M16.75 32.5574C25.4802 32.5574 32.5574 25.4802 32.5574 16.75C32.5574 8.01984 25.4802 0.942627 16.75 0.942627C8.01981 0.942627 0.942596 8.01984 0.942596 16.75C0.942596 25.4802 8.01981 32.5574 16.75 32.5574Z" fill="#4C585E"/>
<path d="M16.75 32.5574C25.4802 32.5574 32.5574 25.4802 32.5574 16.75C32.5574 8.01984 25.4802 0.942627 16.75 0.942627C8.01981 0.942627 0.942596 8.01984 0.942596 16.75C0.942596 25.4802 8.01981 32.5574 16.75 32.5574Z" stroke="#222728" stroke-width="2" stroke-miterlimit="10"/>
<path d="M16.75 29.1735C23.6113 29.1735 29.1735 23.6113 29.1735 16.75C29.1735 9.88871 23.6113 4.32654 16.75 4.32654C9.88871 4.32654 4.32654 9.88871 4.32654 16.75C4.32654 23.6113 9.88871 29.1735 16.75 29.1735Z" stroke="#00DF4B" stroke-miterlimit="10"/>
<path opacity="0.3" d="M24.2248 2.82776C27.0432 5.68384 28.787 9.59563 28.787 13.9222C28.787 22.6506 21.7081 29.7296 12.9796 29.7296C10.2743 29.7296 7.72931 29.0509 5.50478 27.8444C8.37028 30.7476 12.3481 32.5574 16.75 32.5574C25.4785 32.5574 32.5574 25.4784 32.5574 16.75C32.5574 10.7267 29.1829 5.49532 24.2248 2.82776Z" fill="#222728"/>
<path d="M22.2736 18.9463V14.5632C23.3199 14.2144 24.074 13.2247 24.074 12.0653C24.074 10.6137 22.8958 9.42603 21.4347 9.42603C20.2753 9.42603 19.2856 10.1801 18.9368 11.2264H14.5443C14.1956 10.1801 13.2058 9.42603 12.0464 9.42603C10.5948 9.42603 9.40715 10.6043 9.40715 12.0653C9.40715 13.2247 10.1612 14.2144 11.2075 14.5632V18.9463C10.1612 19.295 9.40715 20.2848 9.40715 21.4442C9.40715 22.8958 10.5854 24.0835 12.0464 24.0835C13.2058 24.0835 14.1956 23.3294 14.5443 22.2831H18.9274C19.2762 23.3294 20.2659 24.0835 21.4253 24.0835C22.8769 24.0835 24.0646 22.9052 24.0646 21.4442C24.0646 20.2848 23.3105 19.295 22.2642 18.9463H22.2736ZM18.9368 20.6053H14.5443C14.2804 19.8229 13.6677 19.2008 12.8853 18.9463V14.5538C13.6677 14.2898 14.2898 13.6772 14.5443 12.8948H18.9368C19.2008 13.6772 19.8135 14.2993 20.5958 14.5538V18.9463C19.8135 19.2102 19.1913 19.8229 18.9368 20.6053Z" fill="#222728"/>
</g>
<defs>
<clipPath id="clip0_300_24674">
<rect width="33.5" height="33.5" fill="white"/>
</clipPath>
</defs>
</svg>
