<svg width="34" height="34" viewBox="0 0 34 34" fill="none" xmlns="http://www.w3.org/2000/svg">
<g clip-path="url(#clip0_300_24667)">
<path d="M16.75 32.5574C25.4802 32.5574 32.5574 25.4802 32.5574 16.75C32.5574 8.01984 25.4802 0.942627 16.75 0.942627C8.01981 0.942627 0.942596 8.01984 0.942596 16.75C0.942596 25.4802 8.01981 32.5574 16.75 32.5574Z" fill="#D74401"/>
<path d="M16.75 32.5574C25.4802 32.5574 32.5574 25.4802 32.5574 16.75C32.5574 8.01984 25.4802 0.942627 16.75 0.942627C8.01981 0.942627 0.942596 8.01984 0.942596 16.75C0.942596 25.4802 8.01981 32.5574 16.75 32.5574Z" stroke="#5E1E00" stroke-width="2" stroke-miterlimit="10"/>
<path d="M16.75 29.1735C23.6113 29.1735 29.1735 23.6113 29.1735 16.75C29.1735 9.88871 23.6113 4.32654 16.75 4.32654C9.88871 4.32654 4.32654 9.88871 4.32654 16.75C4.32654 23.6113 9.88871 29.1735 16.75 29.1735Z" stroke="#FFA800" stroke-miterlimit="10"/>
<path opacity="0.3" d="M24.2248 2.82776C27.0432 5.68384 28.787 9.59563 28.787 13.9222C28.787 22.6506 21.7081 29.7296 12.9796 29.7296C10.2743 29.7296 7.72933 29.0509 5.50479 27.8444C8.37029 30.7476 12.3481 32.5574 16.75 32.5574C25.4785 32.5574 32.5574 25.4784 32.5574 16.75C32.5574 10.7267 29.1829 5.49532 24.2248 2.82776Z" fill="#5E1E00"/>
<path d="M21.9626 13.8185C20.6712 13.8185 19.5778 14.6574 19.1913 15.8168H14.3181C13.9316 14.6574 12.8382 13.8185 11.5468 13.8185C9.92557 13.8185 8.61536 15.1287 8.61536 16.75C8.61536 18.3712 9.92557 19.6815 11.5468 19.6815C12.8382 19.6815 13.9316 18.8425 14.3181 17.6831H19.1913C19.5778 18.8425 20.6712 19.6815 21.9626 19.6815C23.5838 19.6815 24.8941 18.3712 24.8941 16.75C24.8941 15.1287 23.5838 13.8185 21.9626 13.8185Z" fill="#5E1E00"/>
</g>
<defs>
<clipPath id="clip0_300_24667">
<rect width="33.5" height="33.5" fill="white"/>
</clipPath>
</defs>
</svg>
