<?xml version="1.0" encoding="utf-8"?>
<!-- Generator: Adobe Illustrator 27.3.1, SVG Export Plug-In . SVG Version: 6.00 Build 0)  -->
<svg version="1.1" id="Layer_1" xmlns="http://www.w3.org/2000/svg" xmlns:xlink="http://www.w3.org/1999/xlink" x="0px" y="0px"
	 viewBox="0 0 60 60" style="enable-background:new 0 0 60 60;" xml:space="preserve">
<style type="text/css">
	.st0{fill:#134558;}
	.st1{fill:#217696;}
	.st2{fill:#8BE7F2;}
</style>
<g>
	<g>
		<g>
			<path class="st0" d="M28.6,56c-7.2,0-15.3-2.9-19.5-9.8c-0.9-1.4-1.7-3-2.3-4.6c-0.3-0.7,0-1.5,0.7-1.9c0.7-0.4,1.5-0.1,1.9,0.5
				c2.1,3.1,4.9,5.1,7.4,6.7c0.4,0.3,0.8,0.6,1.2,0.8c-0.2-0.4-0.2-0.8,0-1.2c0.3-0.6,0.9-1,1.5-0.9c-0.9-0.6-1.8-1.3-2.6-2.1
				c-0.5-0.5-0.6-1.3-0.1-1.9c0.4-0.6,1.2-0.8,1.9-0.5c0,0,0,0,0,0c-0.2-0.2-0.3-0.3-0.5-0.5c-0.4-0.6-0.8-1.1-1.2-1.8L17,38.7
				c-0.1-0.2-0.2-0.4-0.3-0.6c-0.1-0.2-0.1-0.3-0.2-0.5c0-0.1-0.1-0.2-0.1-0.2c-0.5-0.7-0.3-1.6,0.4-2.1c0.7-0.5,1.6-0.3,2.1,0.3
				c0,0,0,0,0,0c2.1,2.9,5.2,4.2,7.4,4.8c0.2,0,0.4,0.1,0.6,0.1c-0.4-0.1-0.8-0.3-1.2-0.5c-2-0.9-3.5-2.6-4.2-4.5
				c-0.3-0.7,0-1.5,0.7-1.9c0.7-0.3,1.5-0.1,1.9,0.5c1.2,1.8,3.2,2.1,4.8,1.8c0.4-0.1,0.7-0.2,1.1-0.3c-0.5-0.6-0.5-1.4,0-2
				c0.5-0.6,0.4-1.3,0.3-1.6c-0.2-0.6-0.7-1.1-1.3-1.2c-1.1-0.2-1.8-1.2-1.8-2.3l0-0.5c0-0.5,0-1,0-1.3c0-0.7,0-2,0-3.1l0-1.1
				c0-0.1,0-0.2,0-0.3c0.1-0.9,0.5-1.6,1.2-2c-0.7-0.4-1.2-1.2-1.2-2v-0.7c0-0.5,0-1.2,0-2l0-1.5c0-0.6,0.3-1.2,0.7-1.7
				c-0.4-0.4-0.7-1-0.7-1.7V9.8c0-0.5,0-1.3,0-2.1l0-1.4c0-0.6,0.3-1.2,0.7-1.7C28.2,4.2,28.8,4,29.5,4c4.1,0.2,8.1,1.3,11.6,3.2
				c3.9,2.2,7.2,5.2,9.4,8.8c4.9,7.1,5.5,16.5,1.6,24.9c-3.9,8.4-11.4,14-20,14.9C30.9,55.9,29.7,56,28.6,56z M32,44.8
				c0.1,0.4,0.1,0.8,0,1.2c-0.1,0.3-0.3,0.6-0.5,0.8c0.8-0.1,1.5-0.3,2.2-0.5c-0.7,0.1-1.4-0.4-1.6-1.1C32.1,45.1,32.1,45,32,44.8
				C32,44.8,32,44.8,32,44.8z M40.9,35.1c0.2,0,0.4,0,0.7,0.2c0.8,0.4,1,1.1,1,1.8c0.6-1.2,1.1-2.6,1.4-4.1c1.2-6.4-1.7-13-7.1-16
				c-2-1.3-4.4-2-6.8-2.3l0,0.8c0,0.8,0,1.5,0,2v0.1c1.6,0.2,3.2,0.7,4.6,1.4c7.1,3.5,8.2,10.6,6.2,16C40.9,35,40.8,35,40.9,35.1
				C40.9,35.1,40.9,35.1,40.9,35.1z M49.1,33.7c0.2,0,0.4,0,0.6,0.1c0.6,0.2,1,0.6,1.3,1.1c1.5-6.1,0.4-12.3-3-17.3c0,0,0,0,0,0
				c-2-3.1-4.9-5.9-8.3-7.8c-2.9-1.6-6.2-2.5-9.5-2.8l0,0.7c0,0.8,0,1.6,0,2.1v0.1c5.5,0.3,10.8,3.1,14.5,7.7
				c3.7,4.5,5.2,10.2,4.2,15.6c0,0.2-0.1,0.4-0.1,0.6C48.8,33.7,48.9,33.7,49.1,33.7z M33.2,29.4c0.1,0,0.2,0,0.3,0
				c0.5,0.1,1,0.4,1.4,0.9c-0.1-0.5-0.4-1-0.7-1.5c-0.7-1.1-0.9-2.1-0.6-3c0.1-0.4,0.4-0.7,0.7-0.9c-0.3-0.3-0.7-0.5-1.1-0.7
				c-1.2-0.7-2.4-1.1-3-1.3v0.7c0,1,0,2.3,0,3c0,0.3,0,0.8,0,1.4c0.9,0.3,1.6,0.9,2.2,1.6C32.5,29.5,32.9,29.4,33.2,29.4z M30.1,6.3
				L30.1,6.3C30.1,6.3,30.1,6.3,30.1,6.3z"/>
		</g>
	</g>
	<g>
		<path class="st1" d="M18.4,38.2c0.3,0.5,0.6,1.1,1,1.5c0.5,0.7,1.2,1.2,1.8,1.7c1.6,1.1,3.5,1.8,5.4,2.2c2,0.3,4,0.2,5.8-0.5
			c1.6-0.6,3.1-1.5,4.4-2.5c1-0.8,2-1.8,2.8-2.7c0.1-0.2,1-1.3,1.3-1.2c0.3,0.1-0.1,1.3-0.2,1.5c-1.5,2.9-4.1,5.3-7.2,6.8
			c14.6-2.1,16.2-22.5,4-29.2c-2.5-1.5-5.3-2.3-8.2-2.5c-0.5,0-0.8,0.4-0.8,0.8c0,1.1,0,2.7,0,3.5c0,0,0,0.4,0,0.7
			c0,0.4,0.3,0.8,0.8,0.8c1.6,0.1,3.2,0.5,4.7,1.3c12.3,6.1,4.9,24.8-8.2,21.5c-3.2-0.9-6.2-2.6-8.2-5.4c0.2,0.3,0.3,0.7,0.4,0.9
			C18.1,37.6,18.3,37.9,18.4,38.2z M26.3,38.7c6.4,3.4,12.9-5,9.1-10.7c-0.3-0.4-0.6-1.1-0.5-1.7c0.2-0.5,0.8-0.1,1.1,0.1
			c0.6,0.5,1,1.4,1.2,2.1c0.3,0.8,0.5,1.6,0.6,2.5c0,0.3,0,0.6,0,0.9c0,2-0.7,4-1.7,5.7c0.1-0.2,0.5-0.5,0.7-0.7
			c0.2-0.3,0.4-0.5,0.6-0.8c0.4-0.6,0.7-1.2,0.9-1.9c0.5-1.3,0.6-2.8,0.4-4.2c-0.2-1.6-0.9-3.2-1.9-4.5c-0.9-1.2-1.9-2-3.2-2.7
			c-0.9-0.5-5.1-2.8-5.3-0.5c0,0,0,0.1,0,0.1c0,1,0,3.2,0,4.1c0,0.5,0,1.2,0,1.9c0,0.4,0.3,0.7,0.7,0.8c2.2,0.5,3.4,3.4,1.8,5.3
			c0.8-0.6,1.4-1.7,1.4-2.7c0.3-1.7,1.7-1.1,1.5,0.8c-0.8,5.1-8.2,6.7-11.1,2.3C23.4,36.5,24.6,37.9,26.3,38.7z M49.2,16.8
			c-2.2-3.4-5.3-6.3-8.9-8.3c-3.4-1.8-7.1-2.8-10.9-3c-0.5,0-0.8,0.4-0.8,0.8c0,1.1,0,2.7,0,3.5c0,0,0,0.4,0,0.7
			c0,0.5,0.4,0.8,0.8,0.8c10.8,0.3,19.9,10.7,17.9,21.5c-0.5,2.8-1.5,5.4-3.2,7.7c-1.6,2.3-3.8,4.2-6.3,5.5
			c-3.2,1.8-6.7,2.6-10.4,2.5c-1.4,0-2.7-0.2-4.1-0.4c-0.7-0.1-1.4-0.3-2-0.4c-0.6-0.2-1.4-0.3-2-0.6c0.3,0.1,0.5,0.4,0.8,0.5
			c0.3,0.2,0.6,0.3,0.8,0.5c0.6,0.3,1.2,0.7,1.8,1c2.9,1.3,6.2,1.3,9.3,0.8c2.8-0.5,5.5-1.6,7.9-3.2c2.4-1.6,4.4-3.7,6-6.1
			c0.9-1.4,1.5-2.8,2-4.4c0,0,0,0,0,0s0.5-1.2,1.1-1c1.3,0.4-0.7,4.3-1,5c-1.4,2.8-3.5,5.2-5.9,7.1c-7.4,6-18.6,6.4-26.3,0.9
			c-2.9-1.9-5.7-4.1-7.8-7.1c0.6,1.5,1.3,2.9,2.2,4.3c4.3,7.1,13.6,9.9,21.5,8.8C49.1,52.5,59,31.1,49.2,16.8z M30,45.2
			c-4.4,0.8-8.1-0.8-11.9-2.7c3.1,3.2,7,4.1,11.6,3.8C30.7,46.1,30.9,44.9,30,45.2z"/>
	</g>
	<g>
		<g>
			<path class="st2" d="M29.4,13.1c-0.5,0-0.8,0.4-0.8,0.8c0,1.1,0,2.7,0,3.5c0,0,0,0.4,0,0.7c0,0.1,0,0.1,0,0.2
				c10.3-0.8,16.2,13,8.5,20.1c-2.2,2.5-5.5,4-9.3,3.7c-0.8,0-1.6,0-2.4-0.1c0.3,0,0.7,0.3,1,0.4c0.3,0.1,0.6,0.2,0.9,0.3
				c0.6,0.2,1.2,0.3,1.8,0.4c0.9,0.1,1.7,0.1,2.5-0.1c1.8-0.3,3.5-1.1,5-2.1c0.1-0.1,0.2-0.2,0.3-0.3c0.9-0.7,1.7-1.5,2.4-2.3
				c0.5-0.7,1-1.3,1.3-2.1c0.7-1.5,1.1-3.2,1.3-4.9c0.1-1.3,0.1-2.6,0.1-3.9c0-0.2-0.2-1.6,0-1.7c0.3-0.1,0.8,1,0.9,1.2
				c1,3.1,0.9,6.6-0.3,9.9c2.4-3.2,3.2-6.7,2.8-9.9c-0.9-4.5-3.4-8.7-7.8-11.1C35.1,14.1,32.3,13.3,29.4,13.1z"/>
		</g>
		<g>
			<path class="st2" d="M50.3,18.6c-0.3-0.6-0.7-1.2-1.1-1.8c-2.2-3.4-5.3-6.3-8.9-8.3c-3.4-1.8-7.1-2.8-10.9-3
				c-0.5,0-0.8,0.4-0.8,0.8c0,1.1,0,2.7,0,3.5c0,0,0,0.4,0,0.7c0,0.1,0,0.3,0.1,0.4c5.9-0.1,11.8,2.4,15.2,7.5
				c1.6,2.3,2.7,4.7,3.2,7.4c0.6,2.3,0.7,4.7,0.2,7.1c-0.5,2.8-1.5,5.4-3.2,7.7c-1.6,2.3-3.8,4.2-6.3,5.5c-0.1,0.1-0.2,0.1-0.4,0.2
				c-0.5,0.3-1,0.6-1.5,0.9c-0.6,0.3-1.2,0.8-1.8,1c0.3-0.1,0.6-0.1,0.9-0.2c0.3-0.1,0.6-0.2,0.9-0.2c0.7-0.2,1.3-0.4,2-0.6
				c3-1.2,5.3-3.4,7.1-6.1c1.6-2.4,2.7-5.1,3.3-7.9c0.6-2.8,0.6-5.7-0.1-8.5c-0.4-1.6-0.9-3.1-1.6-4.5c0,0,0,0,0,0s-0.5-1.2,0-1.5
				c1.2-0.7,2.5,3.5,2.8,4.2c1,3,1.2,6.1,0.9,9.2c-0.2,1.5-0.5,3-1,4.4c-0.3,1.3-1.2,3.1-1.4,3.6c-1.4,2.8-3.5,5.2-5.9,7.1
				c-3.8,3.1-8.6,4.7-13.4,4.8c-2.3,0.3-4.6,0.3-6.9-0.1c1.5,0.6,3,1.2,4.6,1.5c8.1,2,16.6-2.6,21.4-9c0.2-0.3,0.5-0.6,0.7-0.9
				c2.6-4,4.2-8.8,4.3-13.6C53,26.1,52.1,22.1,50.3,18.6z"/>
		</g>
		<g>
			<path class="st2" d="M33.6,31.1C33.6,31.1,33.6,31.1,33.6,31.1c0.2-1-0.2-2.1-0.9-2.8c-1-1.4,0.4-2,1.6-0.5
				c2.8,3.8-0.5,9.6-5.1,9.6c-0.2,0-0.4,0.1-0.6,0.1c1.4,0.5,3,0.5,4.5-0.1c0.6-0.2,1.1-0.5,1.6-0.8c1.9-2.4,2.5-5.8,0.6-8.7
				c-0.3-0.4-0.6-1.1-0.5-1.7c0.2-0.5,0.8-0.1,1.1,0.1c0.6,0.5,1,1.4,1.2,2.1c0.1,0.2,0.1,0.5,0.2,0.7C36.9,26.5,35,24,32,23.4
				c-0.5-0.1-1.3-0.3-1.5-0.8c-0.2-0.5,0.5-0.7,0.9-0.7c0.2,0,0.3,0,0.5,0c-1.5-0.6-3.2-0.9-3.3,0.5c0,0,0,0.1,0,0.1
				c0,1,0,3.2,0,4.1c0,0.5,0,1.2,0,1.9c0,0.1,0,0.1,0,0.2C30.5,27.5,33.3,28.7,33.6,31.1z"/>
		</g>
		<g>
			<path class="st2" d="M30,45.9c0.1,0,0.2,0,0.3,0c0,0,0.1-0.1,0.1-0.1C30.3,45.8,30.1,45.9,30,45.9z"/>
		</g>
		<g>
			<path class="st2" d="M40.8,40.4c0.6-0.9-0.1-1.9-0.5-1c-0.9,1.3-1.9,2.3-3,3.1c-1.1,0.9-2.3,1.8-3.7,2.4c1.1-0.2,2.2-0.4,3.1-0.8
				C38.2,43.1,39.5,41.9,40.8,40.4z"/>
		</g>
	</g>
</g>
</svg>
