<svg width="16" height="17" viewBox="0 0 16 17" fill="none" xmlns="http://www.w3.org/2000/svg">
<path d="M11.3577 0H4.65032C1.73687 0 0 1.73687 0 4.65032V11.3497C0 14.2711 1.73687 16.008 4.65032 16.008H11.3497C14.2631 16.008 16 14.2711 16 11.3577V4.65032C16.008 1.73687 14.2711 0 11.3577 0ZM9.54075 11.3096H5.60279C5.27463 11.3096 5.00249 11.0375 5.00249 10.7093C5.00249 10.3812 5.27463 10.109 5.60279 10.109H9.54075C10.5653 10.109 11.4057 9.27662 11.4057 8.24411C11.4057 7.21159 10.5733 6.37918 9.54075 6.37918H5.48273L5.69084 6.58728C5.92295 6.8274 5.92295 7.20359 5.68283 7.44371C5.56277 7.56377 5.4107 7.6198 5.25862 7.6198C5.10654 7.6198 4.95447 7.56377 4.83441 7.44371L3.57778 6.17908C3.34567 5.94696 3.34567 5.56277 3.57778 5.33066L4.83441 4.07403C5.06652 3.84191 5.45072 3.84191 5.68283 4.07403C5.91495 4.30615 5.91495 4.69034 5.68283 4.92245L5.4187 5.18658H9.54075C11.2296 5.18658 12.6063 6.56327 12.6063 8.25211C12.6063 9.94095 11.2296 11.3096 9.54075 11.3096Z" fill="white" fill-opacity="0.6"/>
</svg>
