<?xml version="1.0" encoding="utf-8"?>
<!-- Generator: Adobe Illustrator 27.3.1, SVG Export Plug-In . SVG Version: 6.00 Build 0)  -->
<svg version="1.1" id="Layer_1" xmlns="http://www.w3.org/2000/svg" xmlns:xlink="http://www.w3.org/1999/xlink" x="0px" y="0px"
	 viewBox="0 0 60 60" style="enable-background:new 0 0 60 60;" xml:space="preserve">
<style type="text/css">
	.st0{fill:#217696;}
	.st1{fill:#134558;}
	.st2{fill:#DFF0F7;}
	.st3{fill:#8BE7F2;}
</style>
<g>
	<g>
		<g>
			
				<rect x="13.7" y="49.9" transform="matrix(-1 -1.224647e-16 1.224647e-16 -1 60.0002 105.4088)" class="st0" width="32.6" height="5.5"/>
		</g>
		<g>
			<rect x="13.7" y="4.5" class="st0" width="32.6" height="5.5"/>
		</g>
		<g>
			<path class="st1" d="M47,56.2H13v-7H47V56.2z M14.5,54.7h31.1v-4H14.5V54.7z"/>
		</g>
		<g>
			<path class="st2" d="M43.5,15.9v-5.9H16.5v5.9c0,3.2,1.5,6.2,4.1,8l6,4.4c1.1,0.8,1.1,2.4,0,3.2c-2.6,1.9-6,4.4-6,4.4
				c-2.6,1.9-4.1,4.9-4.1,8v5.9h27.1v-5.9c0-3.2-1.5-6.2-4.1-8l-6-4.4c-1.1-0.8-1.1-2.4,0-3.2c2.6-1.9,6-4.4,6-4.4
				C42,22.1,43.5,19.1,43.5,15.9z"/>
		</g>
		<g>
			<path class="st1" d="M44.3,50.7H15.7v-6.6c0-3.4,1.6-6.6,4.4-8.6l6-4.4c0.3-0.2,0.5-0.6,0.5-1s-0.2-0.8-0.5-1l-6-4.4
				c-2.7-2-4.4-5.2-4.4-8.6V9.3h28.6v6.6c0,3.4-1.6,6.6-4.4,8.6l-6,4.4c-0.3,0.2-0.5,0.6-0.5,1c0,0.4,0.2,0.8,0.5,1l6,4.4
				c2.7,2,4.4,5.3,4.4,8.6V50.7z M17.2,49.2h25.6v-5.1c0-2.9-1.4-5.7-3.8-7.4l-6-4.4c-0.7-0.5-1.1-1.3-1.1-2.2
				c0-0.9,0.4-1.7,1.1-2.2l6-4.4c2.3-1.7,3.8-4.5,3.8-7.4v-5.1H17.2v5.1c0,2.9,1.4,5.7,3.8,7.4l6,4.4c0.7,0.5,1.1,1.3,1.1,2.2
				c0,0.9-0.4,1.7-1.1,2.2l-6,4.4c-2.3,1.7-3.8,4.5-3.8,7.4V49.2z"/>
		</g>
		<g>
			<path class="st1" d="M47,10.8H13v-7H47V10.8z M14.5,9.3h31.1v-4H14.5V9.3z"/>
		</g>
		<g>
			<path class="st0" d="M40.1,19.9c0,0,1.4-2.3,1-3.5c-0.4-1.3-6.8,0.4-11.6,3.5s3.9,2.7,3.9,2.7L40.1,19.9z"/>
		</g>
		<g>
			<path class="st1" d="M32.1,23.1c-1.8,0-4.1-0.2-4.5-1.3c-0.3-0.9,0.8-1.8,1.6-2.3c4.4-2.9,9.9-4.5,11.6-3.9
				c0.5,0.2,0.6,0.4,0.7,0.7c0.5,1.4-0.9,3.7-1,3.9l-0.1,0.1l-7.1,2.8C33,23.1,32.6,23.1,32.1,23.1z M40,16.4
				c-1.7,0-6.2,1.2-10.2,3.9c-1.2,0.8-1.2,1.2-1.2,1.2c0.1,0.4,2.2,0.7,4.7,0.6l6.5-2.6c0.5-0.8,1.1-2.3,0.9-3
				C40.5,16.4,40.3,16.4,40,16.4z"/>
		</g>
		<g>
			<g>
				<path class="st3" d="M32.4,26.5l5.5-4.1c0.9-0.7,1.6-1.5,2.2-2.5c-2.5,0.5-6.3,2.2-12.2-0.7s-8.2,0.3-8.2,0.3
					c0.5,1.1,1.4,2.2,2.4,2.9l5.5,4.1C30,28.2,32.4,26.5,32.4,26.5z"/>
			</g>
		</g>
		<g>
			<g>
				<path class="st1" d="M29.9,27.7c-0.8,0-1.7-0.2-2.6-0.9l-5.5-4.1c-0.9-0.6-1.6-1.4-2.1-2.3c-0.4-0.7-0.2-1.6,0.4-2
					c1.1-0.8,3.7-1.9,8.1,0.3c4.8,2.4,8.1,1.6,10.5,1c0.5-0.1,0.9-0.2,1.3-0.3l1-0.2l-0.5,0.9c-0.6,1-1.4,1.9-2.3,2.6l-5.5,4.1
					C32.1,27.3,31.1,27.7,29.9,27.7z M23.3,18.5c-1.3,0-2.2,0.4-2.7,0.8c-0.2,0.1-0.2,0.4-0.1,0.7c0.5,0.8,1.1,1.5,1.9,2l5.5,4.1
					c2,1.5,4.1,0.1,4.2,0l5.5-4.1c0.5-0.4,1-0.8,1.4-1.3c0,0,0,0-0.1,0c-2.6,0.6-6.1,1.5-11.2-1C25.9,18.8,24.5,18.5,23.3,18.5z"/>
			</g>
		</g>
		<g>
			<path class="st0" d="M39.4,49.9l-7.2-6.6c-1.1-1-2.9-1-4,0L21,49.9H39.4z"/>
		</g>
		<g>
			<path class="st1" d="M40.7,50.4H19.7l8.2-7.5c1.3-1.2,3.4-1.2,4.7,0L40.7,50.4z M22.2,49.4h15.9l-6.3-5.7c-1-0.9-2.4-0.9-3.4,0
				L22.2,49.4z"/>
		</g>
		<g>
			<path class="st3" d="M31,42.7c-1-0.2-2,0-2.8,0.7L21,49.9h8.6C34.4,46.3,31.6,43.3,31,42.7z"/>
		</g>
		<g>
			<path class="st1" d="M29.7,50.4h-10l8.2-7.5c0.9-0.8,2.1-1.1,3.2-0.8l0.1,0l0.1,0.1c0.4,0.4,1.7,1.7,1.5,3.5
				c-0.1,1.6-1.1,3.1-3,4.5L29.7,50.4z M22.2,49.4h7.1c1.6-1.2,2.4-2.4,2.5-3.6c0.1-1.3-0.8-2.3-1.1-2.7c-0.8-0.2-1.6,0-2.2,0.6
				L22.2,49.4z"/>
		</g>
		<g>
			<circle class="st3" cx="30" cy="33.3" r="1.4"/>
		</g>
		<g>
			<path class="st1" d="M30,35.3c-1.1,0-1.9-0.9-1.9-1.9c0-1.1,0.9-1.9,1.9-1.9c1.1,0,1.9,0.9,1.9,1.9C31.9,34.4,31.1,35.3,30,35.3z
				 M30,32.4c-0.5,0-0.9,0.4-0.9,0.9s0.4,0.9,0.9,0.9c0.5,0,0.9-0.4,0.9-0.9S30.5,32.4,30,32.4z"/>
		</g>
		<g>
			<circle class="st3" cx="30" cy="38.3" r="1.4"/>
		</g>
		<g>
			<path class="st1" d="M30,40.3c-1.1,0-1.9-0.9-1.9-1.9c0-1.1,0.9-1.9,1.9-1.9c1.1,0,1.9,0.9,1.9,1.9C31.9,39.4,31.1,40.3,30,40.3z
				 M30,37.4c-0.5,0-0.9,0.4-0.9,0.9s0.4,0.9,0.9,0.9c0.5,0,0.9-0.4,0.9-0.9S30.5,37.4,30,37.4z"/>
		</g>
	</g>
</g>
</svg>
