<?xml version="1.0" encoding="utf-8"?>
<!-- Generator: Adobe Illustrator 27.3.1, SVG Export Plug-In . SVG Version: 6.00 Build 0)  -->
<svg version="1.1" id="Layer_1" xmlns="http://www.w3.org/2000/svg" xmlns:xlink="http://www.w3.org/1999/xlink" x="0px" y="0px"
	 viewBox="0 0 60 60" style="enable-background:new 0 0 60 60;" xml:space="preserve">
<style type="text/css">
	.st0{fill:#DFF0F7;}
	.st1{fill:#134558;}
	.st2{fill:#8BE7F2;}
	.st3{fill:#217696;}
	.st4{fill:#FF657B;}
</style>
<g>
	<g>
		<path class="st0" d="M49.8,17.1L26.2,40.6l-6.4-6.4l30-30l0,0C53.3,7.7,53.3,13.5,49.8,17.1z"/>
	</g>
	<g>
		<path class="st1" d="M50.2,17.5l-24,24l-7.4-7.4L49.8,3.2l0.5,0.5C54.1,7.5,54.1,13.7,50.2,17.5z M26.2,39.7l23.1-23.1
			c3.1-3.1,3.3-8.2,0.4-11.5L20.7,34.2L26.2,39.7z"/>
	</g>
	<g>
		<path class="st1" d="M46.8,14L23,37.8l-3.7-3.7L46.5,6.9l0.2,0.2C48.7,9.1,48.7,12.1,46.8,14z M23,36.9l23.3-23.3
			c1.6-1.6,1.6-4,0.2-5.7L20.2,34.2L23,36.9z"/>
	</g>
	<g>
		<path class="st2" d="M28.3,46.2l0.3-0.3c0.8-0.8,0.8-2,0-2.8L17.3,31.7c-0.8-0.8-2-0.8-2.8,0L14.1,32c-0.8,0.8-0.8,2,0,2.8
			l11.4,11.4C26.3,47,27.6,47,28.3,46.2z"/>
	</g>
	<g>
		<path class="st1" d="M29.6,45.9l-1.3,1.3c-0.8,0.8-2,0.8-2.8,0L13.2,34.8c-0.8-0.8-0.8-2,0-2.8l1.3-1.3c0.8-0.8,2-0.8,2.8,0
			l12.4,12.4C30.4,43.9,30.4,45.1,29.6,45.9z M14.1,33c-0.3,0.3-0.3,0.7,0,0.9l12.4,12.4c0.3,0.3,0.7,0.3,0.9,0l1.3-1.3
			c0.3-0.3,0.3-0.7,0-0.9L16.4,31.7c-0.3-0.3-0.7-0.3-0.9,0L14.1,33z"/>
	</g>
	<g>
		<path class="st2" d="M12.5,54.4L23,43.8l-6.4-6.4L6,47.9c-1.6,1.6-1.6,4.1,0,5.7l0.8,0.8C8.4,55.9,10.9,55.9,12.5,54.4z"/>
	</g>
	<g>
		
			<rect x="6.4" y="41.5" transform="matrix(0.7071 -0.7071 0.7071 0.7071 -28.4139 23.6037)" class="st3" width="15.7" height="9.1"/>
	</g>
	<g>
		<path class="st1" d="M23.5,43.8L12,55.3l-6.9-6.9l11.5-11.5L23.5,43.8z M12,54.4l10.6-10.6l-6-6L6,48.4L12,54.4z"/>
	</g>
	<g>
		<circle class="st4" cx="11.7" cy="48.6" r="1.7"/>
	</g>
	<g>
		<circle class="st4" cx="16.7" cy="43.7" r="1.7"/>
	</g>
	<g>
		<path class="st1" d="M13.4,50.3c-0.9,0.9-2.4,0.9-3.4,0c-0.9-0.9-0.9-2.4,0-3.4c0.9-0.9,2.4-0.9,3.4,0
			C14.3,47.9,14.4,49.4,13.4,50.3z M11,47.9c-0.4,0.4-0.4,1.1,0,1.5c0.4,0.4,1.1,0.4,1.5,0c0.4-0.4,0.4-1.1,0-1.5
			C12.1,47.5,11.4,47.5,11,47.9z"/>
	</g>
	<g>
		<path class="st1" d="M18.4,45.4c-0.9,0.9-2.4,0.9-3.4,0c-0.9-0.9-0.9-2.4,0-3.4c0.9-0.9,2.4-0.9,3.4,0
			C19.3,42.9,19.3,44.4,18.4,45.4z M16,42.9c-0.4,0.4-0.4,1.1,0,1.5c0.4,0.4,1.1,0.4,1.5,0c0.4-0.4,0.4-1.1,0-1.5
			C17,42.5,16.4,42.5,16,42.9z"/>
	</g>
	<g>
		<path class="st1" d="M24,43.8l-12,12c-1.3,1.3-3.4,1.3-4.6,0l-2.7-2.7c-1.3-1.3-1.3-3.4,0-4.6l12-12L24,43.8z M5.5,49.3
			c-0.8,0.8-0.8,2,0,2.8l2.7,2.7c0.8,0.8,2,0.8,2.8,0l11.1-11.1l-5.5-5.5L5.5,49.3z"/>
	</g>
</g>
<g>
	<g>
		<path class="st0" d="M7,17.1l23.6,23.6l6.4-6.4L7,4.2l0,0C3.4,7.7,3.4,13.5,7,17.1z"/>
	</g>
	<g>
		<path class="st1" d="M6.5,3.7L7,3.2l30.9,30.9l-7.4,7.4l-24-24C2.7,13.7,2.7,7.5,6.5,3.7z M36,34.2L7,5.1
			c-2.8,3.3-2.7,8.3,0.4,11.5l23.1,23.1L36,34.2z"/>
	</g>
	<g>
		<path class="st1" d="M10,7.2l0.2-0.2l27.2,27.2l-3.7,3.7L10,14C8.1,12.1,8.1,9.1,10,7.2z M36.5,34.2L10.2,7.9
			c-1.4,1.6-1.3,4.1,0.2,5.7l23.3,23.3L36.5,34.2z"/>
	</g>
	<g>
		<path class="st2" d="M28.4,46.2L28,45.9c-0.8-0.8-0.8-2,0-2.8l11.4-11.4c0.8-0.8,2-0.8,2.8,0l0.3,0.3c0.8,0.8,0.8,2,0,2.8
			L31.2,46.2C30.4,47,29.2,47,28.4,46.2z"/>
	</g>
	<g>
		<path class="st1" d="M27.1,43.1l12.4-12.4c0.8-0.8,2-0.8,2.8,0l1.3,1.3c0.8,0.8,0.8,2,0,2.8L31.2,47.2c-0.8,0.8-2,0.8-2.8,0
			l-1.3-1.3C26.3,45.1,26.3,43.9,27.1,43.1z M41.3,31.7c-0.3-0.3-0.7-0.3-0.9,0L28,44c-0.3,0.3-0.3,0.7,0,0.9l1.3,1.3
			c0.3,0.3,0.7,0.3,0.9,0l12.4-12.4c0.3-0.3,0.3-0.7,0-0.9L41.3,31.7z"/>
	</g>
	<g>
		<path class="st2" d="M44.3,54.4L33.7,43.8l6.4-6.4l10.6,10.6c1.6,1.6,1.6,4.1,0,5.7l-0.8,0.8C48.4,55.9,45.8,55.9,44.3,54.4z"/>
	</g>
	<g>
		
			<rect x="37.9" y="38.3" transform="matrix(0.7071 -0.7071 0.7071 0.7071 -20.1649 43.5186)" class="st3" width="9.1" height="15.7"/>
	</g>
	<g>
		<path class="st1" d="M40.1,36.9l11.5,11.5l-6.9,6.9L33.2,43.8L40.1,36.9z M50.7,48.4L40.1,37.8l-6,6l10.6,10.6L50.7,48.4z"/>
	</g>
	<g>
		<circle class="st4" cx="45" cy="48.6" r="1.7"/>
	</g>
	<g>
		<circle class="st4" cx="40" cy="43.7" r="1.7"/>
	</g>
	<g>
		<path class="st1" d="M43.3,47c0.9-0.9,2.4-0.9,3.4,0c0.9,0.9,0.9,2.4,0,3.4c-0.9,0.9-2.4,0.9-3.4,0C42.4,49.4,42.4,47.9,43.3,47z
			 M44.2,47.9c-0.4,0.4-0.4,1.1,0,1.5c0.4,0.4,1.1,0.4,1.5,0c0.4-0.4,0.4-1.1,0-1.5C45.3,47.5,44.7,47.5,44.2,47.9z"/>
	</g>
	<g>
		<path class="st1" d="M38.3,42c0.9-0.9,2.4-0.9,3.4,0c0.9,0.9,0.9,2.4,0,3.4c-0.9,0.9-2.4,0.9-3.4,0C37.4,44.4,37.4,42.9,38.3,42z
			 M39.3,42.9c-0.4,0.4-0.4,1.1,0,1.5c0.4,0.4,1.1,0.4,1.5,0c0.4-0.4,0.4-1.1,0-1.5C40.4,42.5,39.7,42.5,39.3,42.9z"/>
	</g>
	<g>
		<path class="st1" d="M40.1,36.4l12,12c1.3,1.3,1.3,3.4,0,4.6l-2.7,2.7c-1.3,1.3-3.4,1.3-4.6,0l-12-12L40.1,36.4z M40.1,38.3
			l-5.5,5.5l11.1,11.1c0.8,0.8,2,0.8,2.8,0l2.7-2.7c0.8-0.8,0.8-2,0-2.8L40.1,38.3z"/>
	</g>
</g>
</svg>
