<svg width="26" height="27" viewBox="0 0 26 27" fill="none" xmlns="http://www.w3.org/2000/svg">
<g clip-path="url(#clip0_755_40898)">
<path d="M25.5125 24.1622L18.7687 17.3919C20.3531 15.5676 21.2469 13.1351 21.2469 10.5811C21.2469 4.74324 16.4937 0 10.6438 0C4.79375 0 0 4.74324 0 10.5811C0 16.4189 4.75313 21.2027 10.6031 21.2027C12.675 21.2027 14.5844 20.5946 16.2094 19.5811L23.1562 26.5135C23.4813 26.8378 23.9281 27 24.3344 27C24.7406 27 25.1875 26.8378 25.5125 26.5135C26.1625 25.8243 26.1625 24.7703 25.5125 24.1622ZM10.6438 17.8378C6.62188 17.8378 3.37187 14.5946 3.37187 10.5811C3.37187 6.56757 6.62188 3.36487 10.6438 3.36487C14.6656 3.36487 17.9156 6.60811 17.9156 10.6216C17.9156 14.6351 14.625 17.8378 10.6438 17.8378Z" fill="#BFBFBF"/>
</g>
<defs>
<clipPath id="clip0_755_40898">
<rect width="26" height="27" fill="white"/>
</clipPath>
</defs>
</svg>
