<?xml version="1.0" encoding="utf-8"?>
<!-- Generator: Adobe Illustrator 27.3.1, SVG Export Plug-In . SVG Version: 6.00 Build 0)  -->
<svg version="1.1" id="Layer_1" xmlns="http://www.w3.org/2000/svg" xmlns:xlink="http://www.w3.org/1999/xlink" x="0px" y="0px"
	 viewBox="0 0 60 60" style="enable-background:new 0 0 60 60;" xml:space="preserve">
<style type="text/css">
	.st0{fill:#DFF0F7;}
	.st1{fill:#FF657B;}
	.st2{fill:#134558;}
</style>
<g>
	<g>
		<g>
			<polygon class="st0" points="40.4,14 30,3.6 19.6,14 25.9,14 25.9,18.9 34.1,18.9 34.1,14 			"/>
		</g>
		<g>
			<circle class="st1" cx="30" cy="30" r="6.2"/>
		</g>
		<g>
			<polygon class="st0" points="19.6,46 30,56.4 40.4,46 34.1,46 34.1,41.1 25.9,41.1 25.9,46 			"/>
		</g>
		<g>
			<polygon class="st0" points="46,40.4 56.4,30 46,19.6 46,25.9 41.1,25.9 41.1,34.1 46,34.1 			"/>
		</g>
		<g>
			<polygon class="st0" points="14,19.6 3.6,30 14,40.4 14,34.1 18.9,34.1 18.9,25.9 14,25.9 			"/>
		</g>
		<g>
			<g>
				<path class="st2" d="M34.9,19.6h-9.8v-4.9h-7.3L30,2.6l12.2,12.2h-7.3V19.6z M26.6,18.1h6.8v-4.9h5.2L30,4.7l-8.5,8.5h5.2V18.1z
					"/>
			</g>
			<g>
				<path class="st2" d="M30,37c-3.8,0-7-3.1-7-7s3.1-7,7-7s7,3.1,7,7S33.8,37,30,37z M30,24.5c-3,0-5.5,2.5-5.5,5.5
					s2.5,5.5,5.5,5.5s5.5-2.5,5.5-5.5S33,24.5,30,24.5z"/>
			</g>
			<g>
				<path class="st2" d="M30,57.4L17.8,45.3h7.3v-4.9h9.8v4.9h7.3L30,57.4z M21.5,46.8l8.5,8.5l8.5-8.5h-5.2v-4.9h-6.8v4.9H21.5z"/>
			</g>
			<g>
				<path class="st2" d="M45.3,42.2v-7.3h-4.9v-9.8h4.9v-7.3L57.4,30L45.3,42.2z M41.9,33.4h4.9v5.2l8.5-8.5l-8.5-8.5v5.2h-4.9V33.4
					z"/>
			</g>
			<g>
				<path class="st2" d="M14.7,42.2L2.6,30l12.2-12.2v7.3h4.9v9.8h-4.9V42.2z M4.7,30l8.5,8.5v-5.2h4.9v-6.8h-4.9v-5.2L4.7,30z"/>
			</g>
		</g>
	</g>
</g>
</svg>
