<?xml version="1.0" encoding="utf-8"?>
<!-- Generator: Adobe Illustrator 27.3.1, SVG Export Plug-In . SVG Version: 6.00 Build 0)  -->
<svg version="1.1" id="Layer_1" xmlns="http://www.w3.org/2000/svg" xmlns:xlink="http://www.w3.org/1999/xlink" x="0px" y="0px"
	 viewBox="0 0 60 60" style="enable-background:new 0 0 60 60;" xml:space="preserve">
<style type="text/css">
	.st0{fill:#DFF0F7;}
	.st1{fill:#134558;}
	.st2{fill:#8BE7F2;}
</style>
<g>
	<g>
		<g>
			<path class="st0" d="M9.7,9.7L9.7,9.7c4-4,10.5-4,14.5,0l26.1,26.1c4,4,4,10.5,0,14.5l0,0c-4,4-10.5,4-14.5,0L9.7,24.2
				C5.7,20.2,5.7,13.7,9.7,9.7z"/>
		</g>
		<g>
			<path class="st1" d="M43,54c-2.8,0-5.6-1.1-7.8-3.2L9.2,24.7c-4.3-4.3-4.3-11.2,0-15.5c4.3-4.3,11.2-4.3,15.5,0l26.1,26.1
				c4.3,4.3,4.3,11.2,0,15.5C48.7,52.9,45.9,54,43,54z M17,7.4c-2.4,0-4.9,0.9-6.7,2.8c-3.7,3.7-3.7,9.8,0,13.5l26.1,26.1
				c3.7,3.7,9.8,3.7,13.5,0c3.7-3.7,3.7-9.8,0-13.5L23.7,10.2C21.8,8.4,19.4,7.4,17,7.4z"/>
		</g>
		<g>
			<path class="st0" d="M9.7,50.3L9.7,50.3c-4-4-4-10.5,0-14.5L35.8,9.7c4-4,10.5-4,14.5,0l0,0c4,4,4,10.5,0,14.5L24.2,50.3
				C20.2,54.3,13.7,54.3,9.7,50.3z"/>
		</g>
		<g>
			<path class="st1" d="M17,54c-2.8,0-5.6-1.1-7.8-3.2l0,0c-4.3-4.3-4.3-11.2,0-15.5L35.3,9.2c4.3-4.3,11.2-4.3,15.5,0
				s4.3,11.2,0,15.5L24.7,50.8C22.6,52.9,19.8,54,17,54z M10.2,49.8c3.7,3.7,9.8,3.7,13.5,0l26.1-26.1c3.7-3.7,3.7-9.8,0-13.5
				c-3.7-3.7-9.8-3.7-13.5,0L10.2,36.3C6.5,40,6.5,46.1,10.2,49.8L10.2,49.8z"/>
		</g>
		<g>
			<path class="st1" d="M30,39.5c-0.4,0-0.8-0.2-1-0.4L20.9,31c-0.6-0.6-0.6-1.5,0-2.1l8.1-8.1c0.6-0.6,1.5-0.6,2.1,0l8.1,8.1
				c0.3,0.3,0.4,0.6,0.4,1c0,0.4-0.2,0.8-0.4,1L31,39.1C30.8,39.4,30.4,39.5,30,39.5z M30,21.5c-0.1,0-0.2,0-0.3,0.1l-8.1,8.1
				c-0.2,0.2-0.2,0.5,0,0.7l8.1,8.1c0.2,0.2,0.5,0.2,0.7,0l8.1-8.1c0.1-0.1,0.1-0.2,0.1-0.3c0-0.1-0.1-0.3-0.1-0.3l-8.1-8.1
				C30.2,21.5,30.1,21.5,30,21.5z"/>
		</g>
		<g>
			<g>
				<g>
					<circle class="st2" cx="30" cy="30" r="0.9"/>
				</g>
				<g>
					<circle class="st2" cx="27.4" cy="27.4" r="0.9"/>
				</g>
				<g>
					<circle class="st2" cx="32.6" cy="32.6" r="0.9"/>
				</g>
			</g>
			<g>
				<g>
					<circle class="st2" cx="32.7" cy="27.3" r="0.9"/>
				</g>
				<g>
					<circle class="st2" cx="30" cy="24.7" r="0.9"/>
				</g>
				<g>
					<circle class="st2" cx="35.3" cy="30" r="0.9"/>
				</g>
			</g>
			<g>
				<g>
					<circle class="st2" cx="27.3" cy="32.7" r="0.9"/>
				</g>
				<g>
					<circle class="st2" cx="24.7" cy="30" r="0.9"/>
				</g>
				<g>
					<circle class="st2" cx="30" cy="35.3" r="0.9"/>
				</g>
			</g>
		</g>
		<g>
			<g>
				<g>
					<path class="st1" d="M30,31.4c-0.4,0-0.7-0.1-1-0.4c-0.3-0.3-0.4-0.6-0.4-1c0-0.4,0.1-0.7,0.4-1c0.5-0.5,1.5-0.5,2,0
						c0.5,0.6,0.5,1.4,0,2l0,0C30.7,31.3,30.4,31.4,30,31.4z M30,29.6c-0.1,0-0.2,0-0.3,0.1c-0.1,0.1-0.1,0.2-0.1,0.3s0,0.2,0.1,0.3
						c0.2,0.2,0.5,0.2,0.6,0c0.2-0.2,0.2-0.5,0-0.6C30.2,29.6,30.1,29.6,30,29.6z"/>
				</g>
				<g>
					<path class="st1" d="M27.4,28.8c-0.4,0-0.7-0.1-1-0.4c-0.5-0.6-0.5-1.4,0-2c0.6-0.6,1.4-0.6,2,0c0.3,0.3,0.4,0.6,0.4,1
						c0,0.4-0.1,0.7-0.4,1l0,0c0,0,0,0,0,0s0,0,0,0C28.1,28.6,27.7,28.8,27.4,28.8z M27.4,26.9c-0.1,0-0.2,0-0.3,0.1
						c-0.2,0.2-0.2,0.5,0,0.6c0.2,0.2,0.5,0.2,0.6,0l0,0c0.1-0.1,0.1-0.2,0.1-0.3s0-0.2-0.1-0.3C27.6,27,27.5,26.9,27.4,26.9z"/>
				</g>
				<g>
					<path class="st1" d="M32.6,34c-0.4,0-0.7-0.1-1-0.4c-0.6-0.6-0.6-1.4,0-2c0.6-0.6,1.4-0.6,2,0c0.6,0.6,0.6,1.4,0,2
						C33.3,33.9,33,34,32.6,34z M32.6,32.2c-0.1,0-0.2,0-0.3,0.1c-0.2,0.2-0.2,0.5,0,0.6c0.2,0.2,0.5,0.2,0.6,0
						c0.2-0.2,0.2-0.5,0-0.6C32.9,32.2,32.7,32.2,32.6,32.2z"/>
				</g>
			</g>
			<g>
				<g>
					<path class="st1" d="M32.7,28.7c-0.4,0-0.7-0.1-1-0.4c-0.3-0.3-0.4-0.6-0.4-1c0-0.4,0.1-0.7,0.4-1c0.6-0.5,1.4-0.5,2,0
						c0.6,0.6,0.6,1.4,0,2l0,0C33.4,28.6,33,28.7,32.7,28.7z M32.7,26.9c-0.1,0-0.2,0-0.3,0.1c-0.1,0.1-0.1,0.2-0.1,0.3
						c0,0.1,0,0.2,0.1,0.3c0.2,0.2,0.5,0.2,0.6,0l0,0c0.2-0.2,0.2-0.5,0-0.6C32.9,26.9,32.8,26.9,32.7,26.9z"/>
				</g>
				<g>
					<path class="st1" d="M30,26.1c-0.4,0-0.7-0.1-1-0.4c-0.6-0.6-0.6-1.4,0-2c0.5-0.6,1.4-0.6,2,0c0.6,0.6,0.6,1.4,0,2l0,0
						C30.8,26,30.4,26.1,30,26.1z M30,24.3c-0.1,0-0.2,0-0.3,0.1c-0.2,0.2-0.2,0.5,0,0.6c0.2,0.2,0.5,0.2,0.6,0
						c0.2-0.2,0.2-0.5,0-0.6C30.3,24.3,30.1,24.3,30,24.3z"/>
				</g>
				<g>
					<path class="st1" d="M35.3,31.4c-0.4,0-0.7-0.1-1-0.4c-0.6-0.6-0.6-1.4,0-2c0.6-0.5,1.4-0.5,2,0c0.6,0.6,0.6,1.4,0,2v0
						C36,31.2,35.7,31.4,35.3,31.4z M35.3,29.5c-0.1,0-0.2,0-0.3,0.1c-0.2,0.2-0.2,0.5,0,0.6c0.2,0.2,0.5,0.2,0.6,0
						c0.2-0.2,0.2-0.5,0-0.6C35.5,29.6,35.4,29.5,35.3,29.5z"/>
				</g>
			</g>
			<g>
				<g>
					<path class="st1" d="M27.3,34.1c-0.4,0-0.7-0.1-1-0.4c-0.5-0.6-0.5-1.4,0-2c0.5-0.6,1.4-0.6,2,0c0.6,0.5,0.6,1.4,0,2h0
						C28.1,33.9,27.7,34.1,27.3,34.1z M27.3,32.2c-0.1,0-0.2,0-0.3,0.1c-0.2,0.2-0.2,0.5,0,0.6c0.2,0.2,0.5,0.2,0.6,0
						c0.2-0.2,0.2-0.5,0-0.6C27.6,32.3,27.4,32.2,27.3,32.2z"/>
				</g>
				<g>
					<path class="st1" d="M24.7,31.4c-0.4,0-0.7-0.1-1-0.4c-0.3-0.3-0.4-0.6-0.4-1c0-0.4,0.1-0.7,0.4-1c0.5-0.6,1.4-0.6,2,0
						c0.5,0.6,0.5,1.4,0,2l0,0C25.4,31.3,25.1,31.4,24.7,31.4z M24.7,29.6c-0.1,0-0.2,0-0.3,0.1c-0.2,0.2-0.2,0.5,0,0.6
						c0.2,0.2,0.5,0.2,0.6,0l0,0c0.2-0.2,0.2-0.5,0-0.6C24.9,29.6,24.8,29.6,24.7,29.6z"/>
				</g>
				<g>
					<path class="st1" d="M30,36.7c-0.4,0-0.7-0.1-1-0.4c-0.3-0.3-0.4-0.6-0.4-1c0-0.4,0.1-0.7,0.4-1c0.6-0.6,1.4-0.6,2,0
						c0.6,0.6,0.6,1.4,0,2l0,0C30.7,36.6,30.3,36.7,30,36.7z M30,34.8c-0.1,0-0.2,0-0.3,0.1c-0.1,0.1-0.1,0.2-0.1,0.3
						c0,0.1,0,0.2,0.1,0.3c0.2,0.2,0.5,0.2,0.6,0h0c0.2-0.2,0.2-0.5,0-0.6C30.2,34.9,30.1,34.8,30,34.8z"/>
				</g>
			</g>
		</g>
	</g>
</g>
</svg>
