<svg width="46" height="46" viewBox="0 0 46 46" fill="none" xmlns="http://www.w3.org/2000/svg">
<g filter="url(#filter0_di_493_22940)">
<circle cx="20.664" cy="20.664" r="20.664" fill="#FF3D46"/>
<circle cx="20.664" cy="20.664" r="19.152" stroke="#15171C" stroke-width="3.024"/>
</g>
<path fill-rule="evenodd" clip-rule="evenodd" d="M20.9897 23.8559L13.7555 30.239L11.0879 27.2157L17.9427 21.1674L11.0879 15.119L13.7556 12.0957L20.9897 18.4788L28.2239 12.0957L30.8916 15.119L24.0368 21.1674L30.8916 27.2157L28.2239 30.239L20.9897 23.8559Z" fill="white"/>
<path d="M13.7555 30.239L13.1887 30.7392L13.6889 31.3061L14.2557 30.8059L13.7555 30.239ZM20.9897 23.8559L21.4899 23.2891L20.9897 22.8477L20.4896 23.2891L20.9897 23.8559ZM11.0879 27.2157L10.5877 26.6488L10.0208 27.149L10.521 27.7159L11.0879 27.2157ZM17.9427 21.1674L18.4429 21.7342L19.0853 21.1674L18.4429 20.6005L17.9427 21.1674ZM11.0879 15.119L10.5211 14.6189L10.0209 15.1857L10.5877 15.6859L11.0879 15.119ZM13.7556 12.0957L14.2558 11.5288L13.6889 11.0286L13.1887 11.5955L13.7556 12.0957ZM20.9897 18.4788L20.4896 19.0457L20.9897 19.487L21.4899 19.0457L20.9897 18.4788ZM28.2239 12.0957L28.7908 11.5955L28.2906 11.0286L27.7237 11.5288L28.2239 12.0957ZM30.8916 15.119L31.3917 15.6859L31.9586 15.1857L31.4584 14.6189L30.8916 15.119ZM24.0368 21.1674L23.5366 20.6005L22.8942 21.1674L23.5366 21.7342L24.0368 21.1674ZM30.8916 27.2157L31.4585 27.7159L31.9587 27.149L31.3918 26.6488L30.8916 27.2157ZM28.2239 30.239L27.7237 30.8059L28.2906 31.3061L28.7908 30.7392L28.2239 30.239ZM14.2557 30.8059L21.4899 24.4228L20.4896 23.2891L13.2554 29.6722L14.2557 30.8059ZM10.521 27.7159L13.1887 30.7392L14.3224 29.7389L11.6548 26.7155L10.521 27.7159ZM17.4425 20.6005L10.5877 26.6488L11.5881 27.7826L18.4429 21.7342L17.4425 20.6005ZM18.4429 20.6005L11.5881 14.5522L10.5877 15.6859L17.4425 21.7342L18.4429 20.6005ZM11.6548 15.6192L14.3225 12.5959L13.1887 11.5955L10.5211 14.6189L11.6548 15.6192ZM13.2554 12.6626L20.4896 19.0457L21.4899 17.9119L14.2558 11.5288L13.2554 12.6626ZM27.7237 11.5288L20.4896 17.9119L21.4899 19.0457L28.7241 12.6626L27.7237 11.5288ZM31.4584 14.6189L28.7908 11.5955L27.657 12.5959L30.3247 15.6192L31.4584 14.6189ZM24.537 21.7342L31.3917 15.6859L30.3914 14.5522L23.5366 20.6005L24.537 21.7342ZM23.5366 21.7342L30.3914 27.7826L31.3918 26.6488L24.537 20.6005L23.5366 21.7342ZM30.3247 26.7155L27.6571 29.7389L28.7908 30.7392L31.4585 27.7159L30.3247 26.7155ZM28.7241 29.6722L21.4899 23.2891L20.4896 24.4228L27.7237 30.8059L28.7241 29.6722Z" fill="#15171C"/>
<defs>
<filter id="filter0_di_493_22940" x="0" y="0" width="45.3601" height="45.3601" filterUnits="userSpaceOnUse" color-interpolation-filters="sRGB">
<feFlood flood-opacity="0" result="BackgroundImageFix"/>
<feColorMatrix in="SourceAlpha" type="matrix" values="0 0 0 0 0 0 0 0 0 0 0 0 0 0 0 0 0 0 127 0" result="hardAlpha"/>
<feOffset dx="4.032" dy="4.032"/>
<feComposite in2="hardAlpha" operator="out"/>
<feColorMatrix type="matrix" values="0 0 0 0 0.0823529 0 0 0 0 0.0901961 0 0 0 0 0.109804 0 0 0 1 0"/>
<feBlend mode="normal" in2="BackgroundImageFix" result="effect1_dropShadow_493_22940"/>
<feBlend mode="normal" in="SourceGraphic" in2="effect1_dropShadow_493_22940" result="shape"/>
<feColorMatrix in="SourceAlpha" type="matrix" values="0 0 0 0 0 0 0 0 0 0 0 0 0 0 0 0 0 0 127 0" result="hardAlpha"/>
<feOffset dy="-15.12"/>
<feComposite in2="hardAlpha" operator="arithmetic" k2="-1" k3="1"/>
<feColorMatrix type="matrix" values="0 0 0 0 0 0 0 0 0 0 0 0 0 0 0 0 0 0 0.25 0"/>
<feBlend mode="normal" in2="shape" result="effect2_innerShadow_493_22940"/>
</filter>
</defs>
</svg>
