<?xml version="1.0" encoding="utf-8"?>
<!-- Generator: Adobe Illustrator 27.3.1, SVG Export Plug-In . SVG Version: 6.00 Build 0)  -->
<svg version="1.1" id="Layer_1" xmlns="http://www.w3.org/2000/svg" xmlns:xlink="http://www.w3.org/1999/xlink" x="0px" y="0px"
	 viewBox="0 0 60 60" style="enable-background:new 0 0 60 60;" xml:space="preserve">
<style type="text/css">
	.st0{fill:#1D6783;}
	.st1{fill:#134558;}
	.st2{fill:#DFF0F7;}
</style>
<g>
	<path class="st0" d="M48.7,31.8c0-1.3-0.2-2.5-0.4-3.7l5.9-4.5l-4.5-7.8l-3-3l-4,5.9c-1.7-1.4-3.6-2.5-5.7-3.3l-1-7.6l-3-3l-6,3
		l-1,7.6c-2.1,0.7-4.1,1.8-5.7,3.3l-7-2.9l-7.5,4.8l3,3l5.9,4.5c-0.3,1.2-0.4,2.5-0.4,3.7c0,1.1,0.1,2.2,0.3,3.2l-5.8,4.4l1.5,4.8
		l3,3l6.6-2.8c1.8,1.6,3.9,2.9,6.3,3.7l-2.1,4l3,3h9l0.9-7c2.4-0.8,4.5-2.1,6.3-3.7l6.6,2.8l4.5-7.8l-3-3l-3-1.4
		C48.6,34,48.7,32.9,48.7,31.8z M31.5,38.5c-4,0-7.3-3.3-7.3-7.3s3.3-7.3,7.3-7.3s7.3,3.3,7.3,7.3S35.5,38.5,31.5,38.5z"/>
	<g>
		<path class="st1" d="M36.6,55.9h-9.9l-3.3-3l1.6-4.3c-2-0.8-3.8-1.8-5.4-3.2L13,48.2l-3-3.1l-2-6l5.9-4.5c-0.2-1-0.2-1.9-0.2-2.9
			c0-1.1,0.1-2.3,0.3-3.4L8.4,24l-3.5-3.2l8.5-5.9l7,2.9c1.6-1.3,3.3-2.3,5.2-2.9l1-7.6l7.1-3.1L37,7.5l0.9,7.4
			c1.8,0.6,3.4,1.6,4.9,2.7l4.3-5.7l3.5,3.5l4.8,8.3l-6.1,4.6c0.2,1.2,0.3,2.3,0.3,3.4c0,0.9-0.1,1.8-0.2,2.8l2.8,1.7l3.2,3L50,48.1
			l-6.7-2.8c-1.7,1.5-3.6,2.6-5.7,3.4L36.6,55.9z M27.3,54.4h8l0.9-6.8l0.5-0.1c2.2-0.7,4.3-1.9,6-3.5l0.4-0.3l6.4,2.7l3.9-6.7
			L50.7,37l-3.2-1.6l0.1-0.6c0.2-1,0.3-2.1,0.3-3.1c0-1.2-0.1-2.4-0.4-3.6l-0.1-0.5l5.8-4.4l-4.1-7.1L46.8,14l-4,5.9l-0.6-0.5
			c-1.6-1.4-3.5-2.4-5.5-3.1l-0.4-0.1l-1-7.8L32.9,6l-5.1,2.6l-1,7.7l-0.4,0.1c-2,0.7-3.9,1.7-5.5,3.1l-0.4,0.3l-7.1-3l-6.4,4
			L9.3,23l6.3,4.8l-0.1,0.5c-0.3,1.2-0.4,2.4-0.4,3.6c0,1,0.1,2,0.3,3.1l0.1,0.5l-5.8,4.4L11,44l2.5,2.5l6.5-2.7l0.4,0.3
			c1.8,1.6,3.8,2.8,6,3.5l0.8,0.3L24.9,52L27.3,54.4z M31.5,39.2c-4.4,0-8-3.6-8-8s3.6-8,8-8s8,3.6,8,8S35.9,39.2,31.5,39.2z
			 M31.5,24.7c-3.6,0-6.5,2.9-6.5,6.5s2.9,6.5,6.5,6.5s6.5-2.9,6.5-6.5S35.1,24.7,31.5,24.7z"/>
	</g>
	<path class="st2" d="M45.9,28.8c0-1.3-0.2-2.5-0.4-3.7l5.9-4.5l-4.5-7.8l-7,2.9c-1.7-1.4-3.6-2.5-5.7-3.3l-1-7.6h-9l-1,7.6
		c-2.1,0.7-4.1,1.8-5.7,3.3l-7-2.9L6,20.5l5.9,4.5c-0.3,1.2-0.4,2.5-0.4,3.7c0,1.1,0.1,2.2,0.3,3.2L6,36.4l4.5,7.8l6.6-2.8
		c1.8,1.6,3.9,2.9,6.3,3.7l0.9,7h9l0.9-7c2.4-0.8,4.5-2.1,6.3-3.7l6.6,2.8l4.5-7.8L45.8,32C45.7,31,45.9,29.9,45.9,28.8z M28.7,35.5
		c-4,0-7.3-3.3-7.3-7.3s3.3-7.3,7.3-7.3s7.3,3.3,7.3,7.3S32.7,35.5,28.7,35.5z"/>
	<g>
		<path class="st1" d="M33.6,52.9H23.4l-0.9-7.2c-2.1-0.8-4-1.9-5.7-3.4L10,45.1l-5.1-8.9l6-4.5c-0.2-1-0.2-1.9-0.2-2.9
			c0-1.1,0.1-2.3,0.3-3.4l-6.1-4.6l5.1-8.9l7.2,3c1.6-1.3,3.3-2.3,5.2-2.9l1-7.8h10.3l1,7.8c1.9,0.7,3.6,1.7,5.2,2.9l7.2-3l5.1,8.9
			l-6.1,4.6c0.2,1.2,0.3,2.3,0.3,3.4c0,0.9-0.1,1.9-0.2,2.9l6,4.5L47,45.1l-6.7-2.8c-1.7,1.5-3.6,2.6-5.7,3.4L33.6,52.9z M24.7,51.4
			h7.6l0.9-6.8l0.5-0.1c2.2-0.7,4.3-1.9,6-3.5l0.4-0.3l6.4,2.7l3.8-6.6l-5.6-4.3l0.1-0.5c0.2-1,0.3-2.1,0.3-3.1
			c0-1.2-0.1-2.4-0.4-3.6l-0.1-0.5l5.8-4.4l-3.8-6.6l-6.8,2.9l-0.4-0.3c-1.6-1.4-3.5-2.4-5.5-3.1l-0.4-0.1l-0.9-7.4H25l-0.9,7.4
			l-0.4,0.1c-2,0.7-3.9,1.7-5.5,3.1l-0.4,0.3L11,13.8l-3.8,6.6l5.8,4.4l-0.1,0.5c-0.3,1.2-0.4,2.4-0.4,3.6c0,1,0.1,2,0.3,3.1
			l0.1,0.5l-5.6,4.3l3.8,6.6l6.4-2.7l0.4,0.3c1.8,1.6,3.8,2.8,6,3.5l0.5,0.1L24.7,51.4z M28.5,36.2c-4.4,0-8-3.6-8-8s3.6-8,8-8
			s8,3.6,8,8S32.9,36.2,28.5,36.2z M28.5,21.7c-3.6,0-6.5,2.9-6.5,6.5s2.9,6.5,6.5,6.5s6.5-2.9,6.5-6.5S32.1,21.7,28.5,21.7z"/>
	</g>
</g>
</svg>
