<svg width="99" height="100" viewBox="0 0 99 100" fill="none" xmlns="http://www.w3.org/2000/svg">
<g clip-path="url(#clip0_397_330)">
<path d="M49.505 99.385C76.7768 99.385 98.885 77.2768 98.885 50.005C98.885 22.7332 76.7768 0.625 49.505 0.625C22.2332 0.625 0.125 22.7332 0.125 50.005C0.125 77.2768 22.2332 99.385 49.505 99.385Z" fill="black"/>
<path d="M66.4851 39.8451C66.2051 40.1351 65.8151 40.2951 65.4051 40.2951H27.1851C25.8351 40.2951 25.1451 38.6451 26.0951 37.6651L32.3651 31.1751C32.6551 30.8751 33.0451 30.7151 33.4551 30.7151H71.8151C73.1751 30.7151 73.8551 32.3751 72.8951 33.3551L66.4851 39.8451ZM66.4851 68.8551C66.1951 69.1351 65.8051 69.2951 65.4051 69.2951H27.1851C25.8351 69.2951 25.1451 67.6851 26.0951 66.7351L32.3651 60.4051C32.6551 60.1151 33.0451 59.9551 33.4551 59.9551H71.8151C73.1751 59.9551 73.8551 61.5751 72.8951 62.5251L66.4851 68.8551ZM66.4851 45.7751C66.1951 45.4951 65.8051 45.3351 65.4051 45.3351H27.1851C25.8351 45.3351 25.1451 46.9451 26.0951 47.8951L32.3651 54.2251C32.6551 54.5151 33.0451 54.6751 33.4551 54.6751H71.8151C73.1751 54.6751 73.8551 53.0551 72.8951 52.1051L66.4851 45.7751Z" fill="white"/>
</g>
<defs>
<clipPath id="clip0_397_330">
<rect width="98.75" height="98.75" fill="white" transform="translate(0.125 0.625)"/>
</clipPath>
</defs>
</svg>
