<svg width="34" height="34" viewBox="0 0 34 34" fill="none" xmlns="http://www.w3.org/2000/svg">
<g clip-path="url(#clip0_300_24660)">
<path d="M16.75 32.5574C25.4802 32.5574 32.5574 25.4802 32.5574 16.75C32.5574 8.01984 25.4802 0.942627 16.75 0.942627C8.01981 0.942627 0.942596 8.01984 0.942596 16.75C0.942596 25.4802 8.01981 32.5574 16.75 32.5574Z" fill="#FFC32D"/>
<path d="M16.75 32.5574C25.4802 32.5574 32.5574 25.4802 32.5574 16.75C32.5574 8.01984 25.4802 0.942627 16.75 0.942627C8.01981 0.942627 0.942596 8.01984 0.942596 16.75C0.942596 25.4802 8.01981 32.5574 16.75 32.5574Z" stroke="#640A0F" stroke-width="2" stroke-miterlimit="10"/>
<path d="M16.75 29.1735C23.6113 29.1735 29.1735 23.6113 29.1735 16.75C29.1735 9.88871 23.6113 4.32654 16.75 4.32654C9.88871 4.32654 4.32654 9.88871 4.32654 16.75C4.32654 23.6113 9.88871 29.1735 16.75 29.1735Z" stroke="#FF3D46" stroke-miterlimit="10"/>
<path d="M21.6986 11.2546C20.6995 11.2546 19.8511 11.905 19.5589 12.8005H13.8845C13.5829 11.905 12.7345 11.2546 11.7448 11.2546C10.4911 11.2546 9.48254 12.2632 9.48254 13.5169C9.48254 14.7705 10.4911 15.7791 11.7448 15.7791C11.8956 15.7791 12.0464 15.7603 12.1972 15.732L15.0062 20.6052C14.6668 21.0011 14.4595 21.5101 14.4595 22.0757C14.4595 23.3293 15.4681 24.3379 16.7217 24.3379C17.9754 24.3379 18.9839 23.3293 18.9839 22.0757C18.9839 21.5101 18.7766 21.0011 18.4372 20.6052L21.2462 15.732C21.3876 15.7603 21.5384 15.7791 21.6892 15.7791C22.9429 15.7791 23.9515 14.7705 23.9515 13.5169C23.9515 12.2632 22.9429 11.2546 21.6892 11.2546H21.6986ZM16.7217 19.8134C16.552 19.8134 16.3918 19.8323 16.2316 19.87L13.432 15.0156C13.63 14.7894 13.7902 14.5255 13.8845 14.2333H19.5589C19.6532 14.5255 19.8134 14.7894 20.0114 15.0156L17.2119 19.87C17.0516 19.8323 16.8914 19.8134 16.7217 19.8134Z" fill="#640A0F"/>
<path opacity="0.3" d="M24.2248 2.82776C27.0432 5.68384 28.787 9.59563 28.787 13.9222C28.787 22.6506 21.7081 29.7296 12.9796 29.7296C10.2743 29.7296 7.72933 29.0509 5.50479 27.8444C8.37029 30.7476 12.3481 32.5574 16.75 32.5574C25.4785 32.5574 32.5574 25.4784 32.5574 16.75C32.5574 10.7267 29.1829 5.49532 24.2248 2.82776Z" fill="#640A0F"/>
</g>
<defs>
<clipPath id="clip0_300_24660">
<rect width="33.5" height="33.5" fill="white"/>
</clipPath>
</defs>
</svg>
