<svg width="54" height="95" viewBox="0 0 54 95" fill="none" xmlns="http://www.w3.org/2000/svg">
<g clip-path="url(#clip0_300_24707)">
<path d="M37.225 33.628L29.8812 24.379L14.179 36.8467L21.5228 46.0958L37.225 33.628Z" fill="#DFF1F7" stroke="#1B475A" stroke-width="1.5" stroke-miterlimit="10"/>
<path d="M37.0099 48.7706L29.3368 39.7928L14.0952 52.8196L21.7683 61.7973L37.0099 48.7706Z" fill="#DFF1F7" stroke="#1B475A" stroke-width="1.5" stroke-miterlimit="10"/>
<path d="M37.5468 63.8432L29.4863 55.2115L14.8322 68.8959L22.8927 77.5275L37.5468 63.8432Z" fill="#DFF1F7" stroke="#1B475A" stroke-width="1.5" stroke-miterlimit="10"/>
<path d="M38.9842 78.5795L30.3189 70.5553L16.6961 85.2666L25.3614 93.2908L38.9842 78.5795Z" fill="#DFF1F7" stroke="#1B475A" stroke-width="1.5" stroke-miterlimit="10"/>
<path d="M30.72 26.53C29.86 25.26 29.81 23.78 29.8 23.72V23.35L30.07 23.12L29.78 23.32L29.58 22.18C29.21 20.01 29.03 19.18 29.03 19.16L28.93 18.7L29.31 18.41C30.64 17.39 32.55 15.64 34.15 13.13C37.05 8.57005 41.37 5.50005 45.16 5.30005C45.29 5.30005 45.42 5.30005 45.54 5.30005C47.78 5.30005 49.74 6.31005 51.05 8.14005C52.44 10.09 52.71 12.39 51.82 14.63C51.12 16.37 49.72 18.03 47.76 19.43C45.82 20.82 43.43 21.88 40.85 22.5C37.78 23.24 35.4 24.59 33.94 25.6C33.1 26.15 31.71 26.78 31.65 26.81L31.07 27.07L30.72 26.55V26.53ZM45.28 9.61005C42.97 9.73005 39.91 12.09 37.83 15.36C36.08 18.12 34.04 20.13 32.3 21.51C34.14 20.34 36.72 19.04 39.91 18.27C43.68 17.36 46.91 15.23 47.77 13.08C48.12 12.19 48.03 11.45 47.47 10.66C46.95 9.93005 46.31 9.59005 45.45 9.59005H45.28V9.61005Z" fill="#FF657A"/>
<path d="M45.54 6.03001C47.54 6.03001 49.27 6.92001 50.44 8.56001C51.68 10.29 51.92 12.34 51.12 14.34C50.46 15.98 49.12 17.52 47.32 18.81C45.5 20.11 43.2 21.15 40.67 21.76C37.54 22.51 35.1 23.87 33.51 24.97C32.72 25.49 31.34 26.11 31.34 26.11C30.59 25.01 30.55 23.69 30.55 23.69C32.19 22.35 35.46 20.12 40.08 19.01C44.13 18.04 47.5 15.77 48.46 13.37C48.91 12.25 48.78 11.23 48.08 10.24C47.42 9.31001 46.55 8.86001 45.45 8.86001C45.38 8.86001 45.31 8.86001 45.24 8.86001C42.66 8.99001 39.43 11.44 37.19 14.96C34.93 18.52 32.17 20.79 30.32 22.04C29.94 19.83 29.76 18.99 29.76 18.99C31.27 17.83 33.17 16.04 34.78 13.51C37.55 9.15001 41.64 6.21001 45.19 6.03001C45.31 6.03001 45.42 6.03001 45.54 6.03001ZM45.54 4.53001C45.4 4.53001 45.26 4.53001 45.12 4.54001C41.1 4.74001 36.54 7.95001 33.52 12.71C31.98 15.14 30.13 16.82 28.85 17.8L28.1 18.38L28.3 19.31C28.3 19.31 28.48 20.16 28.85 22.3L29.05 23.47V23.74C29.06 23.92 29.14 25.53 30.1 26.95L30.81 27.99L31.96 27.47C32.11 27.4 33.48 26.78 34.34 26.21C35.77 25.22 38.06 23.92 41.02 23.21C43.69 22.57 46.17 21.46 48.19 20.02C50.27 18.53 51.76 16.76 52.51 14.88C53.5 12.4 53.2 9.84001 51.66 7.67001C50.21 5.63001 48.03 4.51001 45.54 4.51001V4.53001ZM36.36 18.62C37.08 17.77 37.79 16.82 38.46 15.77C40.42 12.69 43.24 10.47 45.32 10.37C45.37 10.37 45.41 10.37 45.46 10.37C46.08 10.37 46.48 10.59 46.87 11.13C47.28 11.7 47.34 12.19 47.08 12.83C46.31 14.77 43.29 16.71 39.74 17.57C38.52 17.86 37.4 18.23 36.36 18.64V18.62Z" fill="#1B475A"/>
<path d="M7.55 47.7999C5.31 47.7999 3.35 46.7899 2.04 44.9599C0.649999 43.0099 0.379999 40.7099 1.27 38.4699C2.68 34.9499 6.99 31.8599 12.24 30.5999C15.29 29.8699 17.66 28.5299 19.11 27.5299C19.72 27.1199 21.25 26.3899 21.42 26.2999L21.89 26.0699L22.27 26.4299C23.2 27.3199 23.28 29.1599 23.29 29.3599V29.7299L23.02 29.9599L23.53 29.6199V31.0399C23.53 31.2999 23.81 32.7399 24.07 33.9299L24.17 34.3899L23.79 34.6799C22.46 35.6999 20.55 37.4499 18.95 39.9599C17.53 42.1999 15.75 44.1099 13.81 45.4999C11.85 46.8999 9.82 47.6899 7.95 47.7799C7.82 47.7799 7.69 47.7799 7.57 47.7799L7.55 47.7999ZM20.8 31.5599C18.96 32.7299 16.38 34.0299 13.19 34.7999C9.42 35.7099 6.19 37.8399 5.33 39.9899C4.98 40.8799 5.07 41.6199 5.63 42.4099C6.15 43.1399 6.79 43.4799 7.65 43.4799H7.82C10.13 43.3599 13.19 40.9999 15.27 37.7199C17.02 34.9599 19.06 32.9499 20.8 31.5599Z" fill="#FF657A"/>
<path d="M21.75 26.97C22.49 27.68 22.54 29.39 22.54 29.39C20.9 30.73 17.62 32.96 13.01 34.07C8.96 35.04 5.59 37.31 4.63 39.71C4.18 40.83 4.31 41.85 5.01 42.84C5.67 43.77 6.54 44.22 7.64 44.22C7.71 44.22 7.78 44.22 7.85 44.22C10.43 44.09 13.66 41.64 15.9 38.12C18.16 34.56 20.92 32.29 22.77 31.04C22.77 31.51 23.33 34.09 23.33 34.09C21.82 35.25 19.92 37.04 18.31 39.57C16.91 41.77 15.19 43.6 13.36 44.9C11.56 46.19 9.66 46.96 7.9 47.05C7.78 47.05 7.67 47.05 7.55 47.05C5.55 47.05 3.82 46.16 2.65 44.52C1.41 42.79 1.17 40.74 1.97 38.74C3.29 35.44 7.39 32.53 12.42 31.32C15.52 30.57 17.94 29.23 19.53 28.14C20.1 27.76 21.74 26.97 21.74 26.97M22.03 25.17L21.09 25.62C20.8 25.76 19.32 26.47 18.7 26.89C17.28 27.86 15.01 29.15 12.06 29.86C6.57 31.18 2.06 34.45 0.57 38.19C-0.42 40.67 -0.12 43.23 1.43 45.4C2.88 47.44 5.06 48.56 7.55 48.56C7.69 48.56 7.83 48.56 7.97 48.55C9.99 48.45 12.15 47.61 14.23 46.13C16.25 44.69 18.1 42.7 19.57 40.38C21.11 37.95 22.96 36.27 24.24 35.29L24.99 34.71L24.79 33.78C24.55 32.68 24.28 31.31 24.26 31.02V28.19L23.93 28.42C23.8 27.64 23.49 26.59 22.78 25.91L22.03 25.19V25.17ZM7.63 42.72C7.01 42.72 6.61 42.5 6.22 41.96C5.81 41.39 5.75 40.9 6.01 40.26C6.78 38.32 9.8 36.38 13.35 35.52C14.57 35.23 15.69 34.86 16.73 34.45C16.01 35.3 15.3 36.25 14.63 37.3C12.67 40.38 9.85 42.6 7.77 42.7C7.72 42.7 7.68 42.7 7.63 42.7V42.72Z" fill="#1B475A"/>
<path d="M18.4 23.78C17.38 22.45 15.63 20.54 13.12 18.94C10.88 17.52 8.97 15.74 7.58 13.8C6.18 11.84 5.39 9.81002 5.29 7.94002C5.17 5.53002 6.17 3.44002 8.12 2.05002C9.3 1.21002 10.64 0.77002 12.02 0.77002C12.89 0.77002 13.76 0.94002 14.61 1.28002C18.13 2.69002 21.22 7.00002 22.48 12.25C23.21 15.3 24.55 17.67 25.55 19.12L27.09 22.02L26.51 22.39C26.45 22.43 25.08 23.29 23.7 23.3H23.34L23.12 23.03L23.31 23.31L18.68 24.16L18.4 23.8V23.78ZM12.11 5.11002C11.63 5.11002 11.16 5.28002 10.68 5.62002C9.9 6.18002 9.57 6.86002 9.62 7.81002C9.74 10.12 12.1 13.18 15.37 15.26C18.13 17.01 20.14 19.05 21.52 20.79C20.35 18.95 19.05 16.37 18.28 13.18C17.37 9.41002 15.24 6.18002 13.09 5.32002C12.74 5.18002 12.42 5.11002 12.1 5.11002H12.11Z" fill="#FF657A"/>
<path d="M12.02 1.50002C12.79 1.50002 13.57 1.65002 14.34 1.96002C17.64 3.28002 20.55 7.38002 21.76 12.41C22.51 15.51 23.85 17.93 24.94 19.53L26.11 21.74C26.11 21.74 24.88 22.52 23.69 22.53C22.35 20.89 20.12 17.61 19.01 13C18.04 8.95002 15.77 5.58002 13.37 4.62002C12.93 4.45002 12.51 4.36002 12.1 4.36002C11.46 4.36002 10.84 4.57002 10.24 5.01002C9.25001 5.72002 8.80001 6.64002 8.86001 7.85002C8.99001 10.43 11.44 13.66 14.96 15.9C18.52 18.16 20.79 20.92 22.04 22.77L18.99 23.33C17.83 21.82 16.04 19.92 13.51 18.31C11.31 16.91 9.48001 15.19 8.18001 13.36C6.89001 11.56 6.12001 9.66002 6.03001 7.90002C5.92001 5.76002 6.82001 3.89002 8.55001 2.66002C9.61001 1.90002 10.8 1.52002 12.01 1.52002M12.01 0.0200195C10.48 0.0200195 8.98001 0.51002 7.68001 1.44002C5.52001 2.99002 4.40001 5.31002 4.53001 7.98002C4.63001 10 5.47001 12.16 6.95001 14.24C8.39001 16.26 10.38 18.11 12.7 19.58C15.13 21.12 16.81 22.97 17.79 24.25L18.35 24.98L19.25 24.81L22.3 24.25L23.41 24.05H23.68C25.25 24.04 26.73 23.13 26.89 23.03L28.06 22.29L27.41 21.07L26.24 18.86L26.2 18.78L26.15 18.71C25.19 17.32 23.9 15.04 23.19 12.09C21.87 6.60002 18.6 2.09002 14.86 0.60002C13.92 0.22002 12.95 0.0300195 11.99 0.0300195L12.01 0.0200195ZM18.61 16.75C17.76 16.03 16.81 15.32 15.76 14.65C12.68 12.69 10.46 9.87002 10.36 7.79002C10.33 7.10002 10.54 6.65002 11.11 6.25002C11.46 6.00002 11.77 5.88002 12.1 5.88002C12.32 5.88002 12.55 5.93002 12.81 6.03002C14.75 6.80002 16.69 9.82002 17.55 13.37C17.84 14.59 18.21 15.71 18.62 16.75H18.61Z" fill="#1B475A"/>
<path d="M41.06 52.3199C40.19 52.3199 39.32 52.1499 38.47 51.8099C34.95 50.3999 31.86 46.0899 30.6 40.8399C29.87 37.7899 28.53 35.4199 27.53 33.9699L25.99 31.0699L26.57 30.6999C26.63 30.6599 27.99 29.7999 29.38 29.7999H29.74L29.96 30.0699L29.77 29.7899L34.4 28.9399L34.68 29.2999C35.7 30.6299 37.45 32.5399 39.96 34.1399C42.2 35.5599 44.11 37.3399 45.5 39.2899C46.9 41.2499 47.69 43.2799 47.78 45.1499C47.9 47.5599 46.9 49.6499 44.95 51.0399C43.77 51.8799 42.43 52.3199 41.05 52.3199H41.06ZM31.56 32.2799C32.73 34.1199 34.03 36.6999 34.8 39.8899C35.71 43.6599 37.84 46.8899 39.99 47.7499C40.34 47.8899 40.66 47.9599 40.98 47.9599C41.46 47.9599 41.93 47.7899 42.41 47.4499C43.19 46.8899 43.52 46.2099 43.48 45.2599C43.36 42.9499 41 39.8899 37.73 37.8099C34.97 36.0599 32.96 34.0199 31.58 32.2799H31.56Z" fill="#FF657A"/>
<path d="M34.09 29.76C35.25 31.27 37.04 33.17 39.57 34.78C41.77 36.18 43.6 37.9 44.9 39.73C46.19 41.53 46.96 43.43 47.05 45.19C47.16 47.33 46.26 49.2 44.53 50.43C43.47 51.19 42.28 51.57 41.07 51.57C40.3 51.57 39.52 51.42 38.75 51.11C35.45 49.79 32.54 45.69 31.33 40.66C30.58 37.56 29.24 35.14 28.15 33.54L26.98 31.33C26.98 31.33 28.21 30.55 29.4 30.54C30.74 32.18 32.97 35.46 34.08 40.07C35.05 44.12 37.32 47.49 39.72 48.45C40.16 48.62 40.58 48.71 40.99 48.71C41.63 48.71 42.25 48.5 42.85 48.06C43.84 47.35 44.29 46.43 44.23 45.22C44.1 42.64 41.65 39.41 38.13 37.17C34.57 34.91 32.3 32.15 31.05 30.3L34.1 29.74M34.73 28.1L33.83 28.27L30.78 28.83L29.67 29.03H29.4C27.83 29.04 26.35 29.95 26.19 30.05L25.02 30.79L25.67 32.01L26.84 34.22L26.88 34.3L26.93 34.37C27.89 35.76 29.18 38.04 29.89 40.99C31.21 46.48 34.48 50.99 38.22 52.48C39.16 52.86 40.13 53.05 41.09 53.05C42.62 53.05 44.12 52.56 45.42 51.63C47.58 50.08 48.7 47.76 48.57 45.09C48.47 43.07 47.63 40.91 46.15 38.83C44.71 36.81 42.72 34.96 40.4 33.49C37.97 31.95 36.29 30.1 35.31 28.82L34.75 28.09L34.73 28.1ZM40.99 47.2C40.77 47.2 40.54 47.15 40.28 47.05C38.34 46.28 36.4 43.26 35.54 39.71C35.25 38.49 34.88 37.37 34.47 36.33C35.32 37.05 36.27 37.76 37.32 38.43C40.4 40.39 42.62 43.21 42.72 45.29C42.75 45.98 42.54 46.43 41.97 46.83C41.62 47.08 41.31 47.2 40.98 47.2H40.99Z" fill="#1B475A"/>
<path d="M28.91 28.8C28.54 28.05 28.3 27.22 28.16 26.27C27.86 24.2 27.57 22.36 27.02 20.83C26.72 20.01 26.38 19.35 25.97 18.83L25.48 18.21L26.12 17.75C26.68 17.35 27.34 17.14 28.02 17.14C28.7 17.14 29.34 17.34 29.89 17.73C30.62 18.24 31.16 18.94 31.43 19.76C31.85 20.99 32.05 22.44 32.33 24.46L32.5 25.65C32.6 26.33 32.79 26.87 33.09 27.28L33.66 28.07L32.74 28.42C32 28.7 31.06 28.94 29.7 29.21L29.14 29.32L28.89 28.8H28.91Z" fill="#FF657A"/>
<path d="M28.03 17.9C28.53 17.9 29.04 18.05 29.47 18.35C30.05 18.76 30.5 19.33 30.73 20.01C31.2 21.39 31.39 23.13 31.77 25.76C31.9 26.68 32.19 27.3 32.49 27.72C31.73 28.01 30.77 28.24 29.58 28.47C29.27 27.84 29.03 27.1 28.9 26.17C28.62 24.2 28.32 22.23 27.73 20.58C27.43 19.74 27.05 18.99 26.56 18.37C27 18.06 27.51 17.9 28.03 17.9ZM28.03 16.4C27.19 16.4 26.38 16.66 25.69 17.15L24.41 18.06L25.38 19.29C25.74 19.75 26.05 20.34 26.32 21.08C26.85 22.54 27.13 24.34 27.42 26.37C27.57 27.4 27.83 28.29 28.24 29.12L28.74 30.15L29.87 29.93C31.27 29.66 32.25 29.41 33.04 29.11L34.87 28.41L33.72 26.82C33.5 26.52 33.34 26.07 33.27 25.52L33.1 24.34C32.81 22.28 32.61 20.8 32.17 19.5C31.84 18.53 31.21 17.7 30.34 17.1C29.66 16.63 28.87 16.38 28.04 16.38L28.03 16.4Z" fill="#1B475A"/>
<path d="M24.66 32.76C24.38 32.02 24.14 31.08 23.87 29.72L23.76 29.16L24.28 28.91C25.03 28.54 25.86 28.3 26.81 28.16C28.88 27.86 30.72 27.57 32.25 27.02C33.07 26.72 33.73 26.38 34.25 25.97L34.87 25.48L35.33 26.12C36.13 27.24 36.14 28.76 35.35 29.9C34.84 30.63 34.14 31.17 33.32 31.45C32.09 31.87 30.64 32.07 28.62 32.35L27.43 32.52C26.76 32.62 26.21 32.81 25.8 33.11L25.01 33.68L24.66 32.76Z" fill="#FF657A"/>
<path d="M34.71 26.55C35.33 27.42 35.34 28.59 34.73 29.46C34.32 30.04 33.75 30.49 33.07 30.72C31.69 31.19 29.95 31.38 27.32 31.76C26.4 31.89 25.78 32.18 25.36 32.48C25.07 31.72 24.84 30.76 24.61 29.57C25.24 29.26 25.98 29.02 26.91 28.89C28.88 28.61 30.85 28.31 32.5 27.72C33.34 27.42 34.09 27.04 34.71 26.55ZM35.02 24.4L33.79 25.37C33.33 25.73 32.74 26.04 32 26.31C30.54 26.84 28.74 27.12 26.71 27.41C25.68 27.56 24.79 27.82 23.96 28.23L22.93 28.73L23.15 29.86C23.42 31.26 23.67 32.24 23.97 33.03L24.67 34.86L26.26 33.71C26.56 33.49 27.01 33.33 27.56 33.26L28.74 33.09C30.8 32.8 32.28 32.6 33.58 32.16C34.55 31.83 35.38 31.2 35.98 30.33C36.95 28.94 36.94 27.07 35.95 25.69L35.04 24.41L35.02 24.4Z" fill="#1B475A"/>
<path d="M25.06 35.92C24.39 35.92 23.74 35.72 23.19 35.33C22.46 34.82 21.92 34.12 21.65 33.3C21.23 32.07 21.03 30.62 20.75 28.6L20.58 27.41C20.48 26.73 20.29 26.19 19.99 25.78L19.42 24.99L20.34 24.64C21.08 24.36 22.02 24.12 23.38 23.85L23.94 23.74L24.19 24.26C24.56 25.01 24.8 25.84 24.94 26.79C25.24 28.86 25.53 30.7 26.08 32.23C26.38 33.05 26.72 33.71 27.13 34.23L27.62 34.85L26.98 35.31C26.42 35.71 25.76 35.92 25.07 35.92H25.06Z" fill="#FF657A"/>
<path d="M23.51 24.6C23.82 25.23 24.06 25.97 24.19 26.9C24.47 28.87 24.77 30.84 25.36 32.49C25.66 33.33 26.04 34.08 26.53 34.7C26.09 35.01 25.58 35.17 25.06 35.17C24.54 35.17 24.05 35.02 23.62 34.72C23.04 34.31 22.59 33.74 22.36 33.06C21.89 31.68 21.7 29.94 21.32 27.31C21.19 26.39 20.9 25.77 20.6 25.35C21.36 25.06 22.32 24.83 23.51 24.6ZM24.35 22.91L23.22 23.13C21.82 23.4 20.84 23.65 20.05 23.95L18.22 24.65L19.37 26.24C19.59 26.54 19.75 26.99 19.82 27.54L19.99 28.72C20.28 30.78 20.48 32.26 20.92 33.56C21.25 34.53 21.88 35.36 22.75 35.96C23.43 36.43 24.22 36.68 25.05 36.68C25.88 36.68 26.7 36.42 27.39 35.93L28.67 35.02L27.7 33.79C27.34 33.33 27.03 32.74 26.76 32C26.23 30.54 25.95 28.74 25.66 26.71C25.51 25.68 25.25 24.79 24.84 23.96L24.34 22.93L24.35 22.91Z" fill="#1B475A"/>
<path d="M17.77 26.96C16.97 25.84 16.96 24.32 17.75 23.18C18.26 22.45 18.96 21.91 19.78 21.64C20.52 21.39 21.95 21.13 23.33 20.88C24.3 20.7 25.63 20.46 25.89 20.35L26.68 19.78L26.96 20.73C27.3 21.62 27.57 22.6 27.79 23.74L27.9 24.3L27.38 24.55C27.02 24.72 26.22 24.88 24.73 25.17C23.38 25.43 21.7 25.75 20.85 26.06C20.03 26.36 19.37 26.7 18.85 27.11L18.23 27.6L17.77 26.96Z" fill="#FF657A"/>
<path d="M26.26 20.99C26.55 21.75 26.82 22.68 27.05 23.88C26.42 24.19 22.24 24.77 20.59 25.36C19.75 25.66 19 26.04 18.38 26.53C17.76 25.66 17.75 24.49 18.36 23.62C18.77 23.04 19.34 22.59 20.02 22.36C21.4 21.89 25.84 21.3 26.26 21M26.97 18.64L25.52 19.69C25.12 19.8 24.02 20 23.19 20.15C21.78 20.41 20.32 20.67 19.54 20.94C18.57 21.27 17.74 21.9 17.14 22.77C16.17 24.16 16.18 26.03 17.17 27.41L18.08 28.69L19.31 27.72C19.77 27.36 20.36 27.05 21.1 26.78C21.89 26.49 23.54 26.18 24.86 25.92C26.62 25.58 27.27 25.44 27.7 25.23L28.73 24.73L28.51 23.6C28.28 22.42 28 21.39 27.65 20.46L26.95 18.63L26.97 18.64Z" fill="#1B475A"/>
<g opacity="0.3">
<path d="M34.8 31.89L20.01 44.18L21.54 46.11L28.76 40.3L34.24 47.01L19.5 59.06L21.78 61.8L37.02 48.78L29.4 39.86L37.23 33.64L29.89 24.39L29.4 24.77L34.8 31.89Z" fill="#1B475A"/>
<path d="M30.34 70.58L37.55 63.85L29.48 55.22L35.19 61.35L20.89 75.38L23.29 77.84L30 70.9L30.34 70.58L36.28 76.09L22.33 90.49L25.36 93.29L38.98 78.59L30.34 70.58Z" fill="#1B475A"/>
</g>
<g opacity="0.3">
<path opacity="0.3" d="M13.68 18.41C13.28 18.11 12.86 17.81 12.41 17.52C12.77 17.79 13.14 18.05 13.52 18.3C13.57 18.33 13.62 18.37 13.68 18.41Z" fill="#1B475A"/>
<path opacity="0.3" d="M38.26 37.2799C37.85 36.9599 37.41 36.6599 36.96 36.3699C36.86 36.2999 36.76 36.2299 36.66 36.1699C37.12 36.5099 37.6 36.8599 38.12 37.1799C38.17 37.2099 38.21 37.2499 38.26 37.2799Z" fill="#1B475A"/>
<path opacity="0.3" d="M41.55 36.23C41.55 36.23 41.58 36.24 41.6 36.24C41.52 36.18 41.42 36.11 41.33 36.03C41.2 35.93 41.07 35.83 40.94 35.73C38.9 34.15 35.11 31.04 34.28 29.98C34.45 29.82 34.6 29.65 34.73 29.46C35.34 28.58 35.33 27.42 34.71 26.55C34.5 26.72 34.25 26.86 34.01 27C34.06 27.57 33.92 28.16 33.57 28.65C33.49 28.77 33.39 29.01 32.82 29.31C30.94 30.18 27.2 30.89 26.27 31.05L24.96 27.23C24.68 27.27 24.48 27.42 24.3 27.61C24.26 27.38 24.22 27.14 24.19 26.91C24.08 26.15 23.9 25.52 23.67 24.97C24.02 24.87 24.28 24.79 24.39 24.75C24.36 24.67 24.28 24.59 24.17 24.53C25.52 24.27 26.74 24.04 27.06 23.89C26.83 22.7 26.56 21.77 26.27 21C26.21 21.05 26.04 21.1 25.81 21.16L24.96 19.54C23.87 17.95 22.53 15.53 21.78 12.42C20.7 7.91998 18.25 4.16998 15.38 2.47998C17.74 4.40998 19.69 7.72998 20.62 11.61C21.37 14.71 22.08 17.24 23.17 18.84L24.02 20.46C24.25 20.4 25.04 20.24 25.1 20.19C25.39 20.95 25.66 21.88 25.89 23.08C25.52 23.26 23.94 23.53 22.37 23.85C21.32 24.04 18.4 25.01 17.93 25.28C17.97 25.72 18.11 26.16 18.38 26.54C18.69 26.29 21.16 25.66 22.85 25.2C22.92 25.48 22.99 25.78 23.03 26.11C23.16 27.01 23.29 27.91 23.46 28.78C23.76 29.62 24.89 33.29 25.38 33.91C24.51 34.53 23.34 34.54 22.47 33.93C22.28 33.8 22.11 33.64 21.95 33.48C20.48 34.64 18.69 36.37 17.16 38.77C15.76 40.97 14.04 42.8 12.21 44.1C10.41 45.39 8.51 46.16 6.75 46.25C5.59 46.31 4.52 46.07 3.59 45.57C4.76 46.62 6.25 47.15 7.91 47.06C9.67 46.97 11.57 46.2 13.37 44.91C15.19 43.61 16.92 41.77 18.32 39.58C19.85 37.18 21.64 35.45 23.11 34.29C23.27 34.46 23.44 34.61 23.63 34.74C24.51 35.35 25.67 35.34 26.54 34.72C26.05 34.1 25.67 33.34 25.37 32.51C25.66 32.3 26.04 32.11 26.55 31.96C26.95 32.83 27.5 34.05 27.64 34.28C27.86 34.61 30.86 34.46 31.09 34.85C32.11 36.58 32.26 36.97 32.92 39.29C33.98 43 35.84 46.18 38.03 47.39C36.31 45.86 34.82 43.18 34.08 40.1C33.13 36.16 31.37 33.21 30.04 31.41C30.21 31.38 30.82 31.39 31.54 31.33C31.81 32.14 32.16 33.01 32.73 33.06C34.21 33.19 35.46 32.84 35.64 32.92C36.58 33.35 37.64 34.27 38.92 35.07C40.62 36.31 42.69 37.44 43.76 38.94C45.05 40.74 45.82 42.64 45.91 44.4C46.02 46.54 45.12 48.41 43.39 49.64C41.66 50.88 39.61 51.12 37.61 50.32C37.26 50.18 36.92 50.01 36.59 49.81C37.29 50.38 38.02 50.83 38.77 51.13C40.76 51.93 42.82 51.68 44.55 50.45C46.28 49.21 47.18 47.35 47.07 45.21C46.98 43.45 46.21 41.55 44.92 39.75C44.04 38.51 42.89 37.33 41.58 36.26L41.55 36.23Z" fill="#1B475A"/>
<path opacity="0.3" d="M8.87 7.83993C8.81 6.63993 9.26 5.70993 10.25 4.99993C11.24 4.28993 12.26 4.16993 13.38 4.61993C13.56 4.68993 13.73 4.79993 13.9 4.89993C13.36 4.41993 12.79 4.03993 12.22 3.80993C11.1 3.35993 10.08 3.48993 9.09 4.18993C8.1 4.89993 7.65 5.81993 7.71 7.02993C7.84 9.56993 10.23 12.7499 13.67 14.9799C10.86 12.8299 8.98 10.0899 8.87 7.83993Z" fill="#1B475A"/>
<path opacity="0.3" d="M50.44 8.55997C49.87 7.75997 49.16 7.14997 48.36 6.71997C48.69 7.01997 49.01 7.35997 49.28 7.74997C50.52 9.47997 50.76 11.53 49.96 13.53C49.3 15.17 47.96 16.71 46.16 18C44.34 19.3 42.04 20.34 39.51 20.95C36.38 21.7 33.94 23.06 32.35 24.16C32.15 24.29 31.9 24.43 31.66 24.57C31.52 23.76 31.12 21.52 31.11 21.48C32.9 20.16 35.22 18.05 37.18 14.97C39.42 11.45 42.65 8.99997 45.23 8.86997C45.74 8.83997 46.98 9.35997 47.39 9.51997C46.95 8.38997 45.11 8.00997 44.07 8.05997C41.49 8.18997 38.26 10.64 36.02 14.16C34.42 16.67 32.58 18.54 30.98 19.86C30.66 20.13 30.31 17.13 27.9 17.88C27.86 17.89 29.61 18.63 29.94 20.67C30.04 21.15 30.54 24.51 30.62 25.09C30.76 25.94 31.03 26.52 31.32 26.92C31.55 26.84 31.75 26.74 31.96 26.64C31.89 26.42 31.83 26.17 31.78 25.9C32.25 25.67 32.99 25.3 33.49 24.97C35.08 23.87 37.52 22.51 40.65 21.76C43.18 21.15 45.47 20.11 47.3 18.81C49.1 17.52 50.45 15.98 51.1 14.34C51.9 12.35 51.65 10.3 50.42 8.55997H50.44Z" fill="#1B475A"/>
<path opacity="0.3" d="M6.22 43.9C6.12 43.79 5.11 42.97 5.01 42.83C4.3 41.84 4.18 40.82 4.63 39.7C5.59 37.3 8.96 35.04 13.01 34.06C16.35 33.26 18.97 31.87 20.79 30.66C20.7 30.22 20.62 29.74 20.54 29.22C18.74 30.55 15.78 32.31 11.84 33.26C7.79 34.23 4.42 36.5 3.46 38.9C3.01 40.02 3.18 41.68 3.89 42.67C4.3 43.24 5.18 43.96 6.21 43.91L6.22 43.9Z" fill="#1B475A"/>
<path opacity="0.3" d="M19.49 21.32C19.64 21.29 20.64 21.11 20.79 21.08C19.52 19.51 17.71 17.7 15.27 16.09C17.58 17.81 18.77 19.83 19.49 21.31V21.32Z" fill="#1B475A"/>
</g>
</g>
<defs>
<clipPath id="clip0_300_24707">
<rect width="53.09" height="94.35" fill="white"/>
</clipPath>
</defs>
</svg>
