<svg width="34" height="34" viewBox="0 0 34 34" fill="none" xmlns="http://www.w3.org/2000/svg">
<g clip-path="url(#clip0_300_24653)">
<path d="M16.75 32.5574C25.4802 32.5574 32.5574 25.4802 32.5574 16.75C32.5574 8.01984 25.4802 0.942627 16.75 0.942627C8.01981 0.942627 0.942596 8.01984 0.942596 16.75C0.942596 25.4802 8.01981 32.5574 16.75 32.5574Z" fill="#8AE7F2"/>
<path d="M16.75 32.5574C25.4802 32.5574 32.5574 25.4802 32.5574 16.75C32.5574 8.01984 25.4802 0.942627 16.75 0.942627C8.01981 0.942627 0.942596 8.01984 0.942596 16.75C0.942596 25.4802 8.01981 32.5574 16.75 32.5574Z" stroke="#1B475A" stroke-width="2" stroke-miterlimit="10"/>
<path d="M16.75 29.1735C23.6113 29.1735 29.1735 23.6113 29.1735 16.75C29.1735 9.88871 23.6113 4.32654 16.75 4.32654C9.88871 4.32654 4.32654 9.88871 4.32654 16.75C4.32654 23.6113 9.88871 29.1735 16.75 29.1735Z" stroke="#217696" stroke-miterlimit="10"/>
<path d="M16.6369 19.7474C18.2611 19.7474 19.5778 18.4307 19.5778 16.8065C19.5778 15.1823 18.2611 13.8656 16.6369 13.8656C15.0127 13.8656 13.696 15.1823 13.696 16.8065C13.696 18.4307 15.0127 19.7474 16.6369 19.7474Z" fill="#1B475A"/>
<path d="M16.6369 23.5932C12.8948 23.5932 9.85016 20.5486 9.85016 16.8065C9.85016 13.0644 12.8948 10.0198 16.6369 10.0198C20.379 10.0198 23.4236 13.0644 23.4236 16.8065C23.4236 20.5486 20.379 23.5932 16.6369 23.5932ZM16.6369 11.8767C13.9222 11.8767 11.7165 14.0824 11.7165 16.7971C11.7165 19.5118 13.9222 21.7174 16.6369 21.7174C19.3516 21.7174 21.5573 19.5118 21.5573 16.7971C21.5573 14.0824 19.3516 11.8767 16.6369 11.8767Z" fill="#1B475A"/>
<path opacity="0.3" d="M24.2248 2.82776C27.0432 5.68384 28.787 9.59563 28.787 13.9222C28.787 22.6506 21.7081 29.7296 12.9796 29.7296C10.2743 29.7296 7.72933 29.0509 5.50479 27.8444C8.37029 30.7476 12.3481 32.5574 16.75 32.5574C25.4785 32.5574 32.5574 25.4784 32.5574 16.75C32.5574 10.7267 29.1829 5.49532 24.2248 2.82776Z" fill="#1B475A"/>
</g>
<defs>
<clipPath id="clip0_300_24653">
<rect width="33.5" height="33.5" fill="white"/>
</clipPath>
</defs>
</svg>
